<?xml version="1.0" encoding="utf-8"?>
<!-- Generator: Adobe Illustrator 16.0.4, SVG Export Plug-In . SVG Version: 6.00 Build 0)  -->
<!DOCTYPE svg PUBLIC "-//W3C//DTD SVG 1.1//EN" "http://www.w3.org/Graphics/SVG/1.1/DTD/svg11.dtd">
<svg version="1.1" xmlns="http://www.w3.org/2000/svg" xmlns:xlink="http://www.w3.org/1999/xlink" x="0px" y="0px" width="672px"
	 height="477px" viewBox="0 0 672 477" enable-background="new 0 0 672 477" xml:space="preserve">
<g id="Layer_1">
</g>
<g id="Layer_2">
	<g>
		<path fill="#040404" d="M121.664,30.146H56.336C41.814,30.146,30,41.96,30,56.482v65.327c0,14.521,11.814,26.337,26.336,26.337
			h65.327c14.522,0,26.336-11.815,26.336-26.337V56.482C148,41.96,136.186,30.146,121.664,30.146z M142.88,121.809
			c0,11.699-9.518,21.218-21.217,21.218H56.336c-11.699,0-21.217-9.519-21.217-21.218V56.482c0-11.699,9.518-21.217,21.217-21.217
			h65.327c11.699,0,21.217,9.518,21.217,21.217V121.809z"/>
		<g>
			<path d="M91.06,48.446c-1.146,0-2.974,0-4.121,0c-13.359,0-35.158,16.338-26.955,39.745c0.483,1.379,1.012,2.744,1.579,4.092
				c0.563,1.338,1.166,2.661,1.802,3.967c0.629,1.294,1.292,2.569,1.983,3.83c0.681,1.24,1.39,2.465,2.124,3.674
				c0.718,1.183,1.46,2.35,2.224,3.503c0.74,1.118,1.501,2.223,2.28,3.313c0.75,1.051,1.516,2.086,2.297,3.11
				c0.744,0.975,1.5,1.938,2.272,2.89c0.724,0.894,1.459,1.777,2.206,2.652c0.689,0.807,1.389,1.607,2.098,2.398
				c0.642,0.717,1.291,1.426,1.948,2.128c0.58,0.62,1.166,1.233,1.758,1.843c0.504,0.518,1.013,1.031,1.526,1.539
				c0.414,0.41,0.832,0.817,1.252,1.221c0.311,0.297,0.623,0.592,0.938,0.885c0.193,0.179,0.387,0.357,0.582,0.533
				c0.168,0.152,0.241,0.045,0.368-0.068c0.093-0.085,0.186-0.17,0.278-0.256c0.278-0.255,0.554-0.513,0.829-0.773
				c0.388-0.367,0.774-0.74,1.156-1.114c0.485-0.476,0.966-0.956,1.443-1.439c0.568-0.577,1.131-1.159,1.688-1.747
				c0.638-0.673,1.269-1.353,1.892-2.039c0.693-0.764,1.379-1.534,2.055-2.313c0.736-0.849,1.461-1.706,2.175-2.573
				c0.765-0.928,1.517-1.865,2.255-2.814c0.78-1.002,1.545-2.016,2.293-3.042c0.782-1.07,1.546-2.153,2.291-3.251
				c0.77-1.133,1.52-2.281,2.247-3.443c0.745-1.191,1.466-2.398,2.16-3.621c0.707-1.244,1.386-2.505,2.033-3.781
				c0.656-1.292,1.279-2.601,1.865-3.926c0.591-1.335,1.144-2.686,1.655-4.053c0.164-0.439,0.323-0.879,0.479-1.322
				C126.219,64.784,104.42,48.446,91.06,48.446z M88.874,98.536c-11.165,0-20.217-9.052-20.217-20.216
				c0-11.165,9.052-20.217,20.217-20.217c11.166,0,20.216,9.052,20.216,20.217C109.089,89.484,100.039,98.536,88.874,98.536z"/>
			<circle cx="89" cy="78.847" r="9.493"/>
		</g>
	</g>
	<g>
		<path fill="#040404" d="M269.707,30.146H204.38c-14.522,0-26.337,11.814-26.337,26.336v65.328
			c0,14.522,11.814,26.336,26.337,26.336h65.327c14.522,0,26.336-11.813,26.336-26.336V56.482
			C296.043,41.96,284.229,30.146,269.707,30.146z M290.924,121.81c0,11.699-9.518,21.217-21.217,21.217H204.38
			c-11.699,0-21.218-9.518-21.218-21.217V56.482c0-11.699,9.519-21.217,21.218-21.217h65.327c11.699,0,21.217,9.518,21.217,21.217
			V121.81z"/>
		<path fill="#040404" d="M245.573,99.477c3.079,2.25,7.274,5.677,13.024,10.91c6.335,5.766,12.157,11.556,14.373,13.783V82.252
			c0-0.094-0.022-0.181-0.04-0.27L245.573,99.477z"/>
		<path fill="#040404" d="M219.852,68.332l41.337,18.961l10.88-6.957c-1.774-1.781-5.424-5.404-9.753-9.48h4.951
			c0.168,0,0.307-0.204,0.307-0.456v-0.847c0-0.251-0.139-0.456-0.307-0.456h-6.83c-8.619-8.005-19.133-16.97-23.212-17.198
			c-6.605,0.37-30.069,23.632-35.065,28.659l8.925,5.706L219.852,68.332z"/>
		<path fill="#040404" d="M228.51,99.605l-27.372-17.502c-0.006,0.05-0.021,0.096-0.021,0.148v42.07
			C204.987,120.406,218.671,106.771,228.51,99.605z"/>
		<path fill="#040404" d="M237.119,96.987c-5.831,0.44-27.239,21.053-35.278,29.241c0.19,0.102,0.404,0.164,0.637,0.164h69.133
			c0.271,0,0.524-0.082,0.736-0.219C264.267,117.949,242.939,97.427,237.119,96.987z"/>
	</g>
	<g>
		<path fill="#040404" d="M417.996,30.146H352.67c-14.522,0-26.337,11.814-26.337,26.336v65.327
			c0,14.521,11.814,26.336,26.337,26.336h65.326c14.522,0,26.337-11.814,26.337-26.336V56.482
			C444.333,41.96,432.519,30.146,417.996,30.146z M439.214,121.809c0,11.699-9.519,21.217-21.218,21.217H352.67
			c-11.699,0-21.218-9.518-21.218-21.217V56.482c0-11.699,9.519-21.217,21.218-21.217h65.326c11.699,0,21.218,9.518,21.218,21.217
			V121.809z"/>
		<path fill="#040404" d="M407.467,51.208h-44.269c-2.533,0-4.587,1.96-4.587,4.377v69.532c0,2.418,2.054,4.377,4.587,4.377h44.269
			c2.533,0,4.588-1.959,4.588-4.377V55.585C412.055,53.167,410,51.208,407.467,51.208z M388.028,120.547
			c0,1.414-1.147,2.562-2.562,2.562h-0.267c-1.415,0-2.562-1.148-2.562-2.562v-0.268c0-1.416,1.147-2.562,2.562-2.562h0.267
			c1.415,0,2.562,1.146,2.562,2.562V120.547z M405.022,108.65c0,1.416-1.146,2.562-2.562,2.562h-34.256
			c-1.415,0-2.562-1.146-2.562-2.562V62.676c0-1.415,1.147-2.562,2.562-2.562h34.256c1.415,0,2.562,1.146,2.562,2.562V108.65z"/>
	</g>
	<g>
		<path fill="#121111" d="M576.26,30.146h-17.283c-4.075,0-7.391,3.309-7.391,7.375v17.248c0,4.068,3.315,7.377,7.391,7.377h17.283
			c4.074,0,7.389-3.309,7.389-7.377V37.521C583.648,33.455,580.334,30.146,576.26,30.146z M581.449,54.769
			c0,2.857-2.328,5.182-5.189,5.182h-17.283c-2.861,0-5.19-2.324-5.19-5.182V37.521c0-2.855,2.329-5.18,5.19-5.18h17.283
			c2.861,0,5.189,2.325,5.189,5.18V54.769z"/>
		<path fill="#121111" d="M576.997,39.601c-0.74,0-1.383,0.332-1.857,0.959c-0.376,0.5-1.054,1.463-2.012,2.863
			c-0.953,1.393-1.802,2.604-2.52,3.596c-0.707,0.977-1.581,2.018-2.594,3.086c-2.03,2.088-3.213,2.525-3.849,2.525
			c-0.238,0-0.294-0.074-0.315-0.104c-0.09-0.119-0.135-0.285-0.135-0.506c0-0.275,0.076-0.619,0.228-1.029
			c0.286-0.811,1.178-2.486,2.648-4.98c2.052-3.48,2.436-4.545,2.545-5.039c0.056-0.246,0.085-0.48,0.085-0.697
			c0-0.955-0.485-1.713-1.403-2.189c-0.812-0.42-1.761-0.635-2.824-0.635c-1.004,0-2.005,0.084-2.971,0.248
			c-1.986,0.311-3.352,0.762-4.182,1.385c-0.141,0.109-0.283,0.268-0.435,0.484c-0.187,0.264-0.279,0.568-0.279,0.904
			c0,0.303,0.068,0.604,0.205,0.896c0.266,0.57,0.695,0.654,0.926,0.654c0.247,0,0.504-0.111,0.858-0.375
			c0.142-0.105,0.459-0.303,1.168-0.65c1.896-0.949,3.489-1.432,4.732-1.432c1.16,0,1.16,0.5,1.16,0.797
			c0,0.426-0.215,1.334-1.232,3.242c-0.678,1.258-1.399,2.658-2.147,4.162c-0.794,1.6-1.181,2.846-1.181,3.805
			c0,0.846,0.338,1.545,1.004,2.078c0.449,0.393,0.958,0.592,1.51,0.592c0.495,0,1.015-0.119,1.545-0.357
			c0.729-0.33,1.494-0.844,2.289-1.531c-0.169,0.549-0.252,1.033-0.252,1.457c0,0.832,0.338,2.23,2.598,2.23
			c0.5,0,0.984-0.184,1.442-0.545c0.36-0.244,0.406-0.604,0.288-0.857c-0.101-0.219-0.312-0.355-0.554-0.355
			c-0.236,0-0.415,0.129-0.543,0.24c-0.011,0.01-0.018,0.014-0.019,0.018c-0.112-0.002-0.155-0.008-0.156-0.008l0,0
			c-0.21-0.049-0.414-0.141-0.414-0.68c0-0.674,0.349-2.098,2.008-5.057c2.212-3.977,4.042-6.629,5.444-7.889
			c0.161-0.15,0.251-0.344,0.251-0.545C578.059,40.185,577.981,39.601,576.997,39.601z"/>
		<path fill="#121111" d="M599.823,49.177c0,0.365-0.073,0.699-0.219,1.008c-0.146,0.307-0.341,0.576-0.586,0.809
			c-0.243,0.232-0.528,0.414-0.853,0.547c-0.324,0.131-0.671,0.197-1.041,0.197c-0.357,0-0.698-0.066-1.021-0.197
			c-0.324-0.133-0.608-0.311-0.854-0.537s-0.443-0.496-0.595-0.809c-0.152-0.314-0.229-0.652-0.229-1.018v-9.055h-1.983v9.055
			c0,0.629,0.122,1.211,0.366,1.752c0.245,0.539,0.578,1.006,1.002,1.402c0.424,0.395,0.92,0.709,1.488,0.939
			c0.568,0.234,1.177,0.35,1.825,0.35c0.647,0,1.256-0.115,1.825-0.35c0.568-0.23,1.068-0.551,1.497-0.959
			c0.43-0.408,0.768-0.881,1.013-1.422c0.245-0.539,0.367-1.109,0.367-1.713v-9.055h-2.004V49.177z"/>
		<polygon fill="#121111" points="612.977,49.554 607.184,40.122 605.238,40.122 605.238,53.47 607.223,53.47 607.223,43.925 
			613.075,53.47 614.979,53.47 614.979,40.122 612.977,40.122 		"/>
		<rect x="618.472" y="40.122" fill="#121111" width="1.983" height="13.348"/>
		<polygon fill="#121111" points="623.967,53.47 625.95,53.47 625.95,47.614 630.274,47.614 630.274,45.882 625.95,45.882 
			625.95,41.948 630.87,41.948 630.87,40.046 623.967,40.046 		"/>
		<polygon fill="#121111" points="639.401,40.122 637.377,45.317 635.374,40.122 633.251,40.122 636.366,48.235 636.366,53.47 
			638.37,53.47 638.37,48.235 641.523,40.122 		"/>
		<text transform="matrix(0.9993 0 0 1 473.5234 50.3472)" fill="#121111" font-family="'ArialMT'" font-size="12">Powered By</text>
	</g>
	<g>
		<rect x="337.094" y="177.887" fill="#9B8A80" width="178" height="120"/>
		<path fill="#71625A" d="M460.641,276.646c-1.457-0.728-19.299-6.9-19.299-7.99c0-1.087-1.639-10.167-0.547-11.981
			c1.094-1.815,4.186-9.077,4.186-9.077s0.73,0.181,1.277-0.547c0.547-0.725,4.732-7.078,4.186-10.708
			c-0.545-3.633-3.094-2.724-3.094-2.724s3.641-14.525,3.459-16.705c-0.18-2.177-2.912-12.163-10.924-16.883
			c-5.967-3.515-8.918-1.803-13.791-1.146c-1.152,0.154-2.863-0.568-4.043-0.721c-1.26-0.165-2.535-0.26-3.807-0.176
			c-2.369,0.157-4.586,0.946-6.562,2.252c-5.145,3.405-9.781,10.427-10.303,16.673c-0.184,2.18,3.461,16.705,3.461,16.705
			s-2.551-0.909-3.098,2.724c-0.547,3.63,3.643,9.983,4.188,10.708c0.547,0.728,1.275,0.547,1.275,0.547s3.096,7.262,4.188,9.077
			c1.094,1.814-0.545,10.895-0.545,11.981c0,1.09-17.846,7.263-19.303,7.99c-1.402,0.7-19.889,2.418-25.951,21.24h60.088h0.824
			h60.088C480.531,279.064,462.045,277.347,460.641,276.646z"/>
	</g>
	<g>
		<rect x="336.225" y="327.568" fill="#9B8A80" width="178" height="120"/>
		<path fill="#71625A" d="M478.225,447.568c-0.039-0.778-0.119-1.554-0.238-2.323c-0.363-2.354-1.053-4.835-2.055-6.988
			c-0.838-1.806-1.932-3.471-3.389-4.817c-1.857-1.713-4.199-2.801-6.631-3.307c-5.525-1.149-10.846-3.362-15.705-6.186
			c-2.426-1.408-10.783-7.269-11.207-8.947c-0.002-0.009-1.057-4.209-0.174-5.445c0.006-0.01,1.463-2.102,1.748-2.514
			c3.125-4.523,4.859-13.928,4.859-13.928s1.619,0.598,2.852-1.146c1.176-2.124,0.143-5.556,1.43-7.541c0,0,1.158-1.786,1.158-4.047
			c0-2.263-2.199-1.546-2.199-1.546c1.736-4.048,1.387-7.739,0.232-11.784c-1.158-4.048-3.24-6.667-2.777-9.047
			c0.461-2.38-2.314-5.95-5.67-7.022c-2.539-0.811-3.623-1.759-6.006-3.048c1.516-2.302,1.311-5.346-2.127-7.139
			c-2.467-1.285-4.199-0.299-6.684-0.451c-1.213-0.075-2.23-0.773-3.488-0.773c-5.555,0-7.299,4.767-5.562,8.047
			c-2.816,1.454-3.861,2.49-6.604,3.364c-3.355,1.072-6.133,4.643-5.668,7.022c0.463,2.38-1.621,4.999-2.777,9.047
			c-1.156,4.045-1.504,7.736,0.232,11.784c0,0-2.199-0.717-2.199,1.546c0,2.261,1.156,4.047,1.156,4.047
			c1.287,1.985,0.254,5.417,1.43,7.541c1.232,1.744,2.852,1.146,2.852,1.146s1.736,9.404,4.859,13.928
			c0.285,0.412,1.742,2.504,1.75,2.514c0.883,1.236-0.174,5.437-0.176,5.445c-0.424,1.679-8.781,7.539-11.205,8.947
			c-4.861,2.823-10.18,5.036-15.705,6.186c-2.434,0.506-4.773,1.594-6.631,3.307c-1.457,1.347-2.553,3.012-3.391,4.817
			c-1,2.153-1.691,4.635-2.055,6.988c-0.119,0.77-0.199,1.545-0.236,2.323c4.092-0.141,36.678-0.068,52.285-0.025v0.005
			c0.229-0.002,0.477-0.002,0.713-0.003c0.238,0.001,0.486,0.001,0.715,0.003v-0.005C441.545,447.5,474.131,447.428,478.225,447.568
			z"/>
	</g>
	<g>
		<rect x="30" y="177.887" fill="#9B8A80" width="277" height="185"/>
		<g>
			<path fill="#71625A" d="M186.084,251.639c-13.326,0-24.17,10.773-24.17,24.013c0,13.24,10.844,24.011,24.17,24.011
				s24.17-10.771,24.17-24.011C210.254,262.412,199.41,251.639,186.084,251.639z M186.084,290.323
				c-8.158,0-14.77-6.567-14.77-14.672s6.611-14.673,14.77-14.673c8.156,0,14.768,6.568,14.768,14.673
				S194.24,290.323,186.084,290.323z"/>
			<path fill="#71625A" d="M220.67,236.915h-11.287l-5.799-10.528h-10.191h-15.406h-10.191l-5.799,10.528h-25.109
				c0.002-0.041,0.012-0.076,0.012-0.117c0-1.836-1.498-3.325-3.348-3.325h-9.846c-1.848,0-3.348,1.489-3.348,3.325
				c0,0.041,0.012,0.076,0.014,0.117h-4.039c-2.945,0-5.332,2.37-5.332,5.296v66.881c0,2.924,2.387,5.295,5.332,5.295H220.67
				c2.943,0,5.33-2.371,5.33-5.295v-66.881C226,239.285,223.613,236.915,220.67,236.915z M128.629,248.442
				c-1.777,0-3.215-1.429-3.215-3.194c0-1.765,1.438-3.193,3.215-3.193c1.775,0,3.215,1.429,3.215,3.193
				C131.844,247.014,130.404,248.442,128.629,248.442z M186.084,303.285c-15.338,0-27.816-12.396-27.816-27.634
				s12.479-27.636,27.816-27.636s27.816,12.398,27.816,27.636S201.422,303.285,186.084,303.285z"/>
		</g>
	</g>
	<rect x="335.581" y="-196.896" fill="#6ABD45" width="10" height="10"/>
</g>
</svg>
