<?xml version="1.0" encoding="utf-8"?>
<!-- Generator: Adobe Illustrator 16.0.4, SVG Export Plug-In . SVG Version: 6.00 Build 0)  -->
<!DOCTYPE svg PUBLIC "-//W3C//DTD SVG 1.1//EN" "http://www.w3.org/Graphics/SVG/1.1/DTD/svg11.dtd">
<svg version="1.1" id="Layer_1" xmlns="http://www.w3.org/2000/svg" xmlns:xlink="http://www.w3.org/1999/xlink" x="0px" y="0px"
	 width="277.25px" height="276.5px" viewBox="0 0 277.25 276.5" enable-background="new 0 0 277.25 276.5" xml:space="preserve">
<g>
	<path d="M86.864,167.746H56.561c-4.185,0-7.606,3.424-7.606,7.607v60.862c0,4.183,3.424,7.607,7.606,7.607h30.304
		c4.181,0,7.607-3.426,7.607-7.607v-60.862C94.472,171.17,91.048,167.746,86.864,167.746z M64.802,170.507h13.82
		c0.719,0,1.303,0.586,1.303,1.306c0,0.717-0.584,1.304-1.303,1.304h-13.82c-0.717,0-1.304-0.587-1.304-1.304
		C63.498,171.093,64.085,170.507,64.802,170.507z M75.595,238.518c0,0.8-0.657,1.456-1.457,1.456h-4.853
		c-0.8,0-1.454-0.656-1.454-1.456v-2.788c0-0.802,0.654-1.458,1.454-1.458h4.853c0.8,0,1.457,0.656,1.457,1.458V238.518z
		 M90.076,227.431c-0.276,1.804-1.532,2.816-3.322,2.905l-30.524-0.021c-1.806-0.28-2.813-1.532-2.905-3.324l0.022-48.062
		c0.279-1.809,1.535-2.812,3.327-2.904l30.518,0.023c1.813,0.275,2.815,1.535,2.907,3.324L90.076,227.431z"/>
	<path d="M105.857,266.726H37.568c-15.181,0-27.531-12.351-27.531-27.531v-68.289c0-15.181,12.351-27.531,27.531-27.531h68.289
		c15.181,0,27.531,12.35,27.531,27.531v68.289C133.389,254.375,121.038,266.726,105.857,266.726z M37.568,148.727
		c-12.229,0-22.18,9.949-22.18,22.179v68.289c0,12.229,9.95,22.18,22.18,22.18h68.289c12.229,0,22.18-9.95,22.18-22.18v-68.289
		c0-12.229-9.95-22.179-22.18-22.179H37.568z"/>
</g>
<g>
	<path fill="#040404" d="M105.858,133.345h-68.29c-15.181,0-27.531-12.35-27.531-27.531V37.523c0-15.181,12.35-27.531,27.531-27.531
		h68.29c15.181,0,27.531,12.35,27.531,27.531v68.291C133.389,120.995,121.039,133.345,105.858,133.345z M37.568,15.344
		c-12.229,0-22.179,9.95-22.179,22.179v68.291c0,12.229,9.95,22.179,22.179,22.179h68.29c12.229,0,22.179-9.95,22.179-22.179V37.523
		c0-12.229-9.95-22.179-22.179-22.179H37.568z"/>
	<path fill-rule="evenodd" clip-rule="evenodd" fill="#040404" d="M100.809,100.443h-20.86v-0.576c0-0.972-0.794-1.767-1.768-1.767
		h-4.194c0-2.745,0-5.49,0-8.236h-4.555v8.236h-4.185c-0.972,0-1.766,0.795-1.766,1.767v0.576H42.62v4.555c7.22,0,14.089,0,20.86,0
		v0.577c0,0.973,0.794,1.767,1.766,1.767h12.934c0.974,0,1.768-0.794,1.768-1.767v-0.577c6.77,0,13.638,0,20.86,0V100.443
		L100.809,100.443z M78.6,45.97c-0.434,0-0.791-0.352-0.791-0.783c0-2.64,0,1.102,0-1.538c0-0.432,0.357-0.784,0.791-0.784h7.993
		c0.431,0,0.79,0.352,0.79,0.784c0,2.64,0-1.103,0,1.538c0,0.431-0.359,0.783-0.79,0.783H78.6L78.6,45.97z M93.929,42.18
		c1.215,0,2.212,1.008,2.212,2.237s-0.997,2.238-2.212,2.238c-1.246,0-2.234-1.008-2.234-2.238S92.684,42.18,93.929,42.18
		L93.929,42.18z M78.6,63.435c-0.434,0-0.791-0.352-0.791-0.783c0-2.64,0,1.103,0-1.538c0-0.431,0.357-0.783,0.791-0.783h7.993
		c0.431,0,0.79,0.352,0.79,0.783c0,2.641,0-1.103,0,1.538c0,0.432-0.359,0.783-0.79,0.783H78.6L78.6,63.435z M93.929,59.646
		c1.215,0,2.212,1.008,2.212,2.237c0,1.229-0.997,2.237-2.212,2.237c-1.246,0-2.234-1.008-2.234-2.237
		C91.695,60.654,92.684,59.646,93.929,59.646L93.929,59.646z M78.6,80.904c-0.434,0-0.791-0.355-0.791-0.787
		c0-2.641,0,1.106,0-1.534c0-0.432,0.357-0.788,0.791-0.788h7.993c0.431,0,0.79,0.356,0.79,0.788c0,2.64,0-1.106,0,1.534
		c0,0.431-0.359,0.787-0.79,0.787H78.6L78.6,80.904z M93.929,77.111c1.215,0,2.212,1.008,2.212,2.237
		c0,1.232-0.997,2.238-2.212,2.238c-1.246,0-2.234-1.005-2.234-2.238C91.695,78.119,92.684,77.111,93.929,77.111L93.929,77.111z
		 M46.142,51.366c-1.94,0-3.525-1.585-3.525-3.521c0-11.768,0,4.914,0-6.854c0-1.937,1.584-3.525,3.525-3.525h51.141
		c1.938,0,3.523,1.588,3.523,3.525c0,11.768,0-4.914,0,6.854c0,1.937-1.585,3.521-3.523,3.521H46.142L46.142,51.366z M46.142,68.835
		c-1.938,0-3.525-1.588-3.525-3.525c0-11.768,0,4.918,0-6.854c0-1.937,1.586-3.525,3.525-3.525c17.971,0,33.169,0,51.142,0
		c1.937,0,3.522,1.589,3.522,3.525c0,11.771,0-4.914,0,6.854c0,1.937-1.585,3.525-3.522,3.525
		C79.311,68.835,64.113,68.835,46.142,68.835L46.142,68.835z M46.142,86.3c-1.94,0-3.525-1.584-3.525-3.524
		c0-11.768,0,4.917,0-6.854c0-1.936,1.584-3.521,3.525-3.521h51.141c1.938,0,3.523,1.585,3.523,3.521c0,11.771,0-4.914,0,6.854
		c0,1.94-1.585,3.524-3.523,3.524H46.142L46.142,86.3z"/>
</g>
<g>
	<path d="M239.639,133.344h-68.29c-15.181,0-27.531-12.351-27.531-27.531V37.524c0-15.181,12.35-27.531,27.531-27.531h68.29
		c15.18,0,27.531,12.351,27.531,27.531v68.289C267.17,120.994,254.818,133.344,239.639,133.344z M171.349,15.344
		c-12.229,0-22.179,9.95-22.179,22.18v68.289c0,12.229,9.949,22.18,22.179,22.18h68.29c12.229,0,22.18-9.95,22.18-22.18V37.524
		c0-12.229-9.951-22.18-22.18-22.18H171.349z"/>
	<path fill-rule="evenodd" clip-rule="evenodd" d="M226.469,35.376h-42.09v74.055h42.09c2.547,0,4.633-2.083,4.633-4.631V57.198
		l2.32-0.505c0.705-0.153,1.309-0.588,1.309-1.307V43.222c0-0.717-0.617-1.101-1.309-1.305l-2.32-0.691v-1.224
		C231.102,37.458,229.016,35.376,226.469,35.376L226.469,35.376z M190.455,38.701h33.473c1.904,0,3.463,1.562,3.463,3.466v60.983
		c0,1.904-1.559,3.462-3.463,3.462h-33.473c-1.904,0-3.466-1.558-3.466-3.462V42.167C186.989,40.262,188.551,38.701,190.455,38.701
		L190.455,38.701z M183.227,35.376h-0.871c-2.332,0-4.276,1.748-4.585,4.002h3.625c0.507,0,0.915,0.408,0.915,0.91v1.254
		c0,0.498-0.408,0.91-0.915,0.91h-3.669v17.914h3.669c0.507,0,0.915,0.412,0.915,0.914v1.249c0,0.507-0.408,0.915-0.915,0.915
		h-3.669v17.918h3.669c0.507,0,0.915,0.408,0.915,0.91v1.253c0,0.499-0.408,0.911-0.915,0.911h-3.669v17.914h3.669
		c0.507,0,0.915,0.411,0.915,0.914v1.25c0,0.505-0.408,0.914-0.915,0.914h-3.625c0.309,2.254,2.253,4.002,4.585,4.002h0.871V35.376
		L183.227,35.376z"/>
</g>
</svg>
