<?xml version="1.0" encoding="UTF-8" standalone="no"?>
<!DOCTYPE svg PUBLIC "-//W3C//DTD SVG 1.1//EN"
 "http://www.w3.org/Graphics/SVG/1.1/DTD/svg11.dtd">
<!-- Generated by graphviz version 2.38.0 (20140413.2041)
 -->
<!-- Title: controllers_diagram Pages: 1 -->
<svg width="386pt" height="354pt"
 viewBox="0.00 0.00 385.51 354.00" xmlns="http://www.w3.org/2000/svg" xmlns:xlink="http://www.w3.org/1999/xlink">
<g id="graph0" class="graph" transform="scale(1 1) rotate(0) translate(88.8208 231.5)">
<title>controllers_diagram</title>
<polygon fill="none" stroke="none" points="-88.8208,122.5 -88.8208,-231.5 296.688,-231.5 296.688,122.5 -88.8208,122.5"/>
<!-- _diagram_info -->
<g id="node1" class="node"><title>_diagram_info</title>
<text text-anchor="start" x="93.3123" y="25.9" font-family="Times,serif" font-size="13.00">Controllers diagram</text>
<text text-anchor="start" x="93.3123" y="38.9" font-family="Times,serif" font-size="13.00">Date: Sep 14 2015 &#45; 15:05</text>
<text text-anchor="start" x="93.3123" y="51.9" font-family="Times,serif" font-size="13.00">Migration version: 20150914073249</text>
<text text-anchor="start" x="93.3123" y="64.9" font-family="Times,serif" font-size="13.00">Generated by RailRoady 1.3.1</text>
<text text-anchor="start" x="93.3123" y="77.9" font-family="Times,serif" font-size="13.00">http://railroady.prestonlee.com</text>
</g>
<!-- ApplicationController -->
<g id="node2" class="node"><title>ApplicationController</title>
<path fill="none" stroke="black" d="M-72.8208,-137C-72.8208,-137 42.8208,-137 42.8208,-137 48.8208,-137 54.8208,-143 54.8208,-149 54.8208,-149 54.8208,-215 54.8208,-215 54.8208,-221 48.8208,-227 42.8208,-227 42.8208,-227 -72.8208,-227 -72.8208,-227 -78.8208,-227 -84.8208,-221 -84.8208,-215 -84.8208,-215 -84.8208,-149 -84.8208,-149 -84.8208,-143 -78.8208,-137 -72.8208,-137"/>
<text text-anchor="middle" x="-15" y="-211.8" font-family="Times,serif" font-size="14.00">ApplicationController</text>
<polyline fill="none" stroke="black" points="-84.8208,-205 54.8208,-205 "/>
<text text-anchor="start" x="-76.8208" y="-189.8" font-family="Times,serif" font-size="14.00">set_locale</text>
<polyline fill="none" stroke="black" points="-84.8208,-183 54.8208,-183 "/>
<polyline fill="none" stroke="black" points="-84.8208,-159 54.8208,-159 "/>
<text text-anchor="start" x="-76.8208" y="-143.8" font-family="Times,serif" font-size="14.00">_layout</text>
</g>
<!-- UnifyController -->
<g id="node3" class="node"><title>UnifyController</title>
<path fill="none" stroke="black" d="M-72.6553,118C-72.6553,118 40.6553,118 40.6553,118 46.6553,118 52.6553,112 52.6553,106 52.6553,106 52.6553,-86 52.6553,-86 52.6553,-92 46.6553,-98 40.6553,-98 40.6553,-98 -72.6553,-98 -72.6553,-98 -78.6553,-98 -84.6553,-92 -84.6553,-86 -84.6553,-86 -84.6553,106 -84.6553,106 -84.6553,112 -78.6553,118 -72.6553,118"/>
<text text-anchor="middle" x="-16" y="-82.8" font-family="Times,serif" font-size="14.00">UnifyController</text>
<polyline fill="none" stroke="black" points="-84.6553,-76 52.6553,-76 "/>
<text text-anchor="start" x="-76.6553" y="-60.8" font-family="Times,serif" font-size="14.00">check_user_session</text>
<text text-anchor="start" x="-76.6553" y="-46.8" font-family="Times,serif" font-size="14.00">get_dim_data</text>
<text text-anchor="start" x="-76.6553" y="-32.8" font-family="Times,serif" font-size="14.00">get_filter_data</text>
<text text-anchor="start" x="-76.6553" y="-18.8" font-family="Times,serif" font-size="14.00">index</text>
<text text-anchor="start" x="-76.6553" y="-4.8" font-family="Times,serif" font-size="14.00">login</text>
<text text-anchor="start" x="-76.6553" y="9.2" font-family="Times,serif" font-size="14.00">register</text>
<text text-anchor="start" x="-76.6553" y="23.2" font-family="Times,serif" font-size="14.00">save_linkedin_profile</text>
<text text-anchor="start" x="-76.6553" y="37.2" font-family="Times,serif" font-size="14.00">search</text>
<text text-anchor="start" x="-76.6553" y="51.2" font-family="Times,serif" font-size="14.00">services</text>
<text text-anchor="start" x="-76.6553" y="65.2" font-family="Times,serif" font-size="14.00">user_params</text>
<polyline fill="none" stroke="black" points="-84.6553,72 52.6553,72 "/>
<polyline fill="none" stroke="black" points="-84.6553,96 52.6553,96 "/>
<text text-anchor="start" x="-76.6553" y="111.2" font-family="Times,serif" font-size="14.00">_layout</text>
</g>
<!-- UnifyMatchmakersController -->
<g id="node4" class="node"><title>UnifyMatchmakersController</title>
<path fill="none" stroke="black" d="M96.7998,-18C96.7998,-18 255.2,-18 255.2,-18 261.2,-18 267.2,-24 267.2,-30 267.2,-30 267.2,-124 267.2,-124 267.2,-130 261.2,-136 255.2,-136 255.2,-136 96.7998,-136 96.7998,-136 90.7998,-136 84.7998,-130 84.7998,-124 84.7998,-124 84.7998,-30 84.7998,-30 84.7998,-24 90.7998,-18 96.7998,-18"/>
<text text-anchor="middle" x="176" y="-120.8" font-family="Times,serif" font-size="14.00">UnifyMatchmakersController</text>
<polyline fill="none" stroke="black" points="84.7998,-114 267.2,-114 "/>
<text text-anchor="start" x="92.7998" y="-98.8" font-family="Times,serif" font-size="14.00">save_account</text>
<text text-anchor="start" x="92.7998" y="-84.8" font-family="Times,serif" font-size="14.00">view_account</text>
<polyline fill="none" stroke="black" points="84.7998,-78 267.2,-78 "/>
<polyline fill="none" stroke="black" points="84.7998,-54 267.2,-54 "/>
<text text-anchor="start" x="92.7998" y="-38.8" font-family="Times,serif" font-size="14.00">_layout</text>
<text text-anchor="start" x="92.7998" y="-24.8" font-family="Times,serif" font-size="14.00">build_object</text>
</g>
</g>
</svg>
