<?xml version="1.0" encoding="UTF-8" standalone="no"?>
<!DOCTYPE svg PUBLIC "-//W3C//DTD SVG 1.1//EN"
 "http://www.w3.org/Graphics/SVG/1.1/DTD/svg11.dtd">
<!-- Generated by graphviz version 2.38.0 (20140413.2041)
 -->
<!-- Title: models_diagram Pages: 1 -->
<svg width="1895pt" height="677pt"
 viewBox="0.00 0.00 1894.55 677.00" xmlns="http://www.w3.org/2000/svg" xmlns:xlink="http://www.w3.org/1999/xlink">
<g id="graph0" class="graph" transform="scale(1 1) rotate(0) translate(4 673)">
<title>models_diagram</title>
<polygon fill="none" stroke="none" points="-4,4 -4,-673 1890.55,-673 1890.55,4 -4,4"/>
<!-- _diagram_info -->
<g id="node1" class="node"><title>_diagram_info</title>
<text text-anchor="start" x="165.097" y="-584.6" font-family="Times,serif" font-size="13.00">Models diagram</text>
<text text-anchor="start" x="165.097" y="-571.6" font-family="Times,serif" font-size="13.00">Date: Sep 14 2015 &#45; 15:05</text>
<text text-anchor="start" x="165.097" y="-558.6" font-family="Times,serif" font-size="13.00">Migration version: 20150914073249</text>
<text text-anchor="start" x="165.097" y="-545.6" font-family="Times,serif" font-size="13.00">Generated by RailRoady 1.3.1</text>
<text text-anchor="start" x="165.097" y="-532.6" font-family="Times,serif" font-size="13.00">http://railroady.prestonlee.com</text>
</g>
<!-- DimCaste -->
<g id="node2" class="node"><title>DimCaste</title>
<path fill="none" stroke="black" d="M12,-242.5C12,-242.5 101.569,-242.5 101.569,-242.5 107.569,-242.5 113.569,-248.5 113.569,-254.5 113.569,-254.5 113.569,-302.5 113.569,-302.5 113.569,-308.5 107.569,-314.5 101.569,-314.5 101.569,-314.5 12,-314.5 12,-314.5 6,-314.5 0,-308.5 0,-302.5 0,-302.5 0,-254.5 0,-254.5 0,-248.5 6,-242.5 12,-242.5"/>
<text text-anchor="middle" x="56.7847" y="-299.3" font-family="Times,serif" font-size="14.00">DimCaste</text>
<polyline fill="none" stroke="black" points="0,-292.5 113.569,-292.5 "/>
<text text-anchor="start" x="8" y="-277.3" font-family="Times,serif" font-size="14.00">id :integer</text>
<text text-anchor="start" x="8" y="-263.3" font-family="Times,serif" font-size="14.00">name :string</text>
<text text-anchor="start" x="8" y="-249.3" font-family="Times,serif" font-size="14.00">locale_id :integer</text>
</g>
<!-- UnifyMatchmakersMapping -->
<g id="node13" class="node"><title>UnifyMatchmakersMapping</title>
<path fill="none" stroke="black" d="M179.081,-0.5C179.081,-0.5 330.488,-0.5 330.488,-0.5 336.488,-0.5 342.488,-6.5 342.488,-12.5 342.488,-12.5 342.488,-88.5 342.488,-88.5 342.488,-94.5 336.488,-100.5 330.488,-100.5 330.488,-100.5 179.081,-100.5 179.081,-100.5 173.081,-100.5 167.081,-94.5 167.081,-88.5 167.081,-88.5 167.081,-12.5 167.081,-12.5 167.081,-6.5 173.081,-0.5 179.081,-0.5"/>
<text text-anchor="middle" x="254.785" y="-85.3" font-family="Times,serif" font-size="14.00">UnifyMatchmakersMapping</text>
<polyline fill="none" stroke="black" points="167.081,-78.5 342.488,-78.5 "/>
<text text-anchor="start" x="175.081" y="-63.3" font-family="Times,serif" font-size="14.00">id :integer</text>
<text text-anchor="start" x="175.081" y="-49.3" font-family="Times,serif" font-size="14.00">matchmakers_id :integer</text>
<text text-anchor="start" x="175.081" y="-35.3" font-family="Times,serif" font-size="14.00">religion_id :integer</text>
<text text-anchor="start" x="175.081" y="-21.3" font-family="Times,serif" font-size="14.00">caste_id :integer</text>
<text text-anchor="start" x="175.081" y="-7.3" font-family="Times,serif" font-size="14.00">language_id :integer</text>
</g>
<!-- DimCaste&#45;&gt;UnifyMatchmakersMapping -->
<g id="edge1" class="edge"><title>DimCaste&#45;&gt;UnifyMatchmakersMapping</title>
<path fill="none" stroke="#ed7420" d="M69.8779,-234.603C80.5645,-204.774 97.9767,-165.423 122.785,-137 133.193,-125.075 145.655,-114.167 158.708,-104.427"/>
<ellipse fill="none" stroke="#ed7420" cx="68.4909" cy="-238.58" rx="4.00001" ry="4.00001"/>
<polygon fill="#ed7420" stroke="#ed7420" points="158.791,-104.367 169.533,-102.162 162.845,-101.44 166.899,-98.5138 166.899,-98.5138 166.899,-98.5138 162.845,-101.44 164.265,-94.8652 158.791,-104.367 158.791,-104.367"/>
</g>
<!-- DimCity -->
<g id="node3" class="node"><title>DimCity</title>
<path fill="none" stroke="black" d="M583,-526.5C583,-526.5 672.569,-526.5 672.569,-526.5 678.569,-526.5 684.569,-532.5 684.569,-538.5 684.569,-538.5 684.569,-586.5 684.569,-586.5 684.569,-592.5 678.569,-598.5 672.569,-598.5 672.569,-598.5 583,-598.5 583,-598.5 577,-598.5 571,-592.5 571,-586.5 571,-586.5 571,-538.5 571,-538.5 571,-532.5 577,-526.5 583,-526.5"/>
<text text-anchor="middle" x="627.785" y="-583.3" font-family="Times,serif" font-size="14.00">DimCity</text>
<polyline fill="none" stroke="black" points="571,-576.5 684.569,-576.5 "/>
<text text-anchor="start" x="579" y="-561.3" font-family="Times,serif" font-size="14.00">id :integer</text>
<text text-anchor="start" x="579" y="-547.3" font-family="Times,serif" font-size="14.00">name :string</text>
<text text-anchor="start" x="579" y="-533.3" font-family="Times,serif" font-size="14.00">locale_id :integer</text>
</g>
<!-- DimCommunity -->
<g id="node4" class="node"><title>DimCommunity</title>
<path fill="none" stroke="black" d="M714.892,-540.5C714.892,-540.5 798.678,-540.5 798.678,-540.5 804.678,-540.5 810.678,-546.5 810.678,-552.5 810.678,-552.5 810.678,-572.5 810.678,-572.5 810.678,-578.5 804.678,-584.5 798.678,-584.5 798.678,-584.5 714.892,-584.5 714.892,-584.5 708.892,-584.5 702.892,-578.5 702.892,-572.5 702.892,-572.5 702.892,-552.5 702.892,-552.5 702.892,-546.5 708.892,-540.5 714.892,-540.5"/>
<text text-anchor="middle" x="756.785" y="-569.3" font-family="Times,serif" font-size="14.00">DimCommunity</text>
<polyline fill="none" stroke="black" points="702.892,-562.5 810.678,-562.5 "/>
<text text-anchor="start" x="710.892" y="-547.3" font-family="Times,serif" font-size="14.00">id :integer</text>
</g>
<!-- DimCountry -->
<g id="node5" class="node"><title>DimCountry</title>
<path fill="none" stroke="black" d="M394.221,-505.5C394.221,-505.5 541.349,-505.5 541.349,-505.5 547.349,-505.5 553.349,-511.5 553.349,-517.5 553.349,-517.5 553.349,-607.5 553.349,-607.5 553.349,-613.5 547.349,-619.5 541.349,-619.5 541.349,-619.5 394.221,-619.5 394.221,-619.5 388.221,-619.5 382.221,-613.5 382.221,-607.5 382.221,-607.5 382.221,-517.5 382.221,-517.5 382.221,-511.5 388.221,-505.5 394.221,-505.5"/>
<text text-anchor="middle" x="467.785" y="-604.3" font-family="Times,serif" font-size="14.00">DimCountry</text>
<polyline fill="none" stroke="black" points="382.221,-597.5 553.349,-597.5 "/>
<text text-anchor="start" x="390.221" y="-582.3" font-family="Times,serif" font-size="14.00">id :integer</text>
<text text-anchor="start" x="390.221" y="-568.3" font-family="Times,serif" font-size="14.00">name :string</text>
<text text-anchor="start" x="390.221" y="-554.3" font-family="Times,serif" font-size="14.00">locale_id :integer</text>
<text text-anchor="start" x="390.221" y="-540.3" font-family="Times,serif" font-size="14.00">country_new_code :integer</text>
<text text-anchor="start" x="390.221" y="-526.3" font-family="Times,serif" font-size="14.00">country_old_code :integer</text>
<text text-anchor="start" x="390.221" y="-512.3" font-family="Times,serif" font-size="14.00">country_abbrevation :string</text>
</g>
<!-- UnifyMatchmaker -->
<g id="node12" class="node"><title>UnifyMatchmaker</title>
<path fill="none" stroke="black" d="M407.828,-137.5C407.828,-137.5 527.742,-137.5 527.742,-137.5 533.742,-137.5 539.742,-143.5 539.742,-149.5 539.742,-149.5 539.742,-407.5 539.742,-407.5 539.742,-413.5 533.742,-419.5 527.742,-419.5 527.742,-419.5 407.828,-419.5 407.828,-419.5 401.828,-419.5 395.828,-413.5 395.828,-407.5 395.828,-407.5 395.828,-149.5 395.828,-149.5 395.828,-143.5 401.828,-137.5 407.828,-137.5"/>
<text text-anchor="middle" x="467.785" y="-404.3" font-family="Times,serif" font-size="14.00">UnifyMatchmaker</text>
<polyline fill="none" stroke="black" points="395.828,-397.5 539.742,-397.5 "/>
<text text-anchor="start" x="403.828" y="-382.3" font-family="Times,serif" font-size="14.00">id :integer</text>
<text text-anchor="start" x="403.828" y="-368.3" font-family="Times,serif" font-size="14.00">user_name :string</text>
<text text-anchor="start" x="403.828" y="-354.3" font-family="Times,serif" font-size="14.00">password :string</text>
<text text-anchor="start" x="403.828" y="-340.3" font-family="Times,serif" font-size="14.00">company_name :string</text>
<text text-anchor="start" x="403.828" y="-326.3" font-family="Times,serif" font-size="14.00">first_name :string</text>
<text text-anchor="start" x="403.828" y="-312.3" font-family="Times,serif" font-size="14.00">last_name :string</text>
<text text-anchor="start" x="403.828" y="-298.3" font-family="Times,serif" font-size="14.00">email_address :string</text>
<text text-anchor="start" x="403.828" y="-284.3" font-family="Times,serif" font-size="14.00">phone :integer</text>
<text text-anchor="start" x="403.828" y="-270.3" font-family="Times,serif" font-size="14.00">address_1 :string</text>
<text text-anchor="start" x="403.828" y="-256.3" font-family="Times,serif" font-size="14.00">address_2 :string</text>
<text text-anchor="start" x="403.828" y="-242.3" font-family="Times,serif" font-size="14.00">state :string</text>
<text text-anchor="start" x="403.828" y="-228.3" font-family="Times,serif" font-size="14.00">city :string</text>
<text text-anchor="start" x="403.828" y="-214.3" font-family="Times,serif" font-size="14.00">country_id :integer</text>
<text text-anchor="start" x="403.828" y="-200.3" font-family="Times,serif" font-size="14.00">religion_id :integer</text>
<text text-anchor="start" x="403.828" y="-186.3" font-family="Times,serif" font-size="14.00">language_id :integer</text>
<text text-anchor="start" x="403.828" y="-172.3" font-family="Times,serif" font-size="14.00">caste_id :integer</text>
<text text-anchor="start" x="403.828" y="-158.3" font-family="Times,serif" font-size="14.00">locale_id :integer</text>
<text text-anchor="start" x="403.828" y="-144.3" font-family="Times,serif" font-size="14.00">last_updated :datetime</text>
</g>
<!-- DimCountry&#45;&gt;UnifyMatchmaker -->
<g id="edge2" class="edge"><title>DimCountry&#45;&gt;UnifyMatchmaker</title>
<path fill="none" stroke="#2eda85" d="M467.785,-497.39C467.785,-477.022 467.785,-453.571 467.785,-429.766"/>
<ellipse fill="none" stroke="#2eda85" cx="467.785" cy="-501.449" rx="4" ry="4"/>
<polygon fill="#2eda85" stroke="#2eda85" points="467.785,-429.55 472.285,-419.55 467.785,-424.55 467.785,-419.55 467.785,-419.55 467.785,-419.55 467.785,-424.55 463.285,-419.55 467.785,-429.55 467.785,-429.55"/>
</g>
<!-- DimLanguage -->
<g id="node6" class="node"><title>DimLanguage</title>
<path fill="none" stroke="black" d="M144,-242.5C144,-242.5 233.569,-242.5 233.569,-242.5 239.569,-242.5 245.569,-248.5 245.569,-254.5 245.569,-254.5 245.569,-302.5 245.569,-302.5 245.569,-308.5 239.569,-314.5 233.569,-314.5 233.569,-314.5 144,-314.5 144,-314.5 138,-314.5 132,-308.5 132,-302.5 132,-302.5 132,-254.5 132,-254.5 132,-248.5 138,-242.5 144,-242.5"/>
<text text-anchor="middle" x="188.785" y="-299.3" font-family="Times,serif" font-size="14.00">DimLanguage</text>
<polyline fill="none" stroke="black" points="132,-292.5 245.569,-292.5 "/>
<text text-anchor="start" x="140" y="-277.3" font-family="Times,serif" font-size="14.00">id :integer</text>
<text text-anchor="start" x="140" y="-263.3" font-family="Times,serif" font-size="14.00">name :string</text>
<text text-anchor="start" x="140" y="-249.3" font-family="Times,serif" font-size="14.00">locale_id :integer</text>
</g>
<!-- DimLanguage&#45;&gt;UnifyMatchmakersMapping -->
<g id="edge3" class="edge"><title>DimLanguage&#45;&gt;UnifyMatchmakersMapping</title>
<path fill="none" stroke="#faa4de" d="M201.392,-234.331C211.652,-199.195 226.24,-149.244 237.575,-110.43"/>
<ellipse fill="none" stroke="#faa4de" cx="200.219" cy="-238.348" rx="4.00001" ry="4.00001"/>
<polygon fill="#faa4de" stroke="#faa4de" points="237.579,-110.416 244.702,-102.079 238.981,-105.617 240.382,-100.817 240.382,-100.817 240.382,-100.817 238.981,-105.617 236.063,-99.5559 237.579,-110.416 237.579,-110.416"/>
</g>
<!-- DimLocale -->
<g id="node7" class="node"><title>DimLocale</title>
<path fill="none" stroke="black" d="M840.986,-533.5C840.986,-533.5 902.583,-533.5 902.583,-533.5 908.583,-533.5 914.583,-539.5 914.583,-545.5 914.583,-545.5 914.583,-579.5 914.583,-579.5 914.583,-585.5 908.583,-591.5 902.583,-591.5 902.583,-591.5 840.986,-591.5 840.986,-591.5 834.986,-591.5 828.986,-585.5 828.986,-579.5 828.986,-579.5 828.986,-545.5 828.986,-545.5 828.986,-539.5 834.986,-533.5 840.986,-533.5"/>
<text text-anchor="middle" x="871.785" y="-576.3" font-family="Times,serif" font-size="14.00">DimLocale</text>
<polyline fill="none" stroke="black" points="828.986,-569.5 914.583,-569.5 "/>
<text text-anchor="start" x="836.986" y="-554.3" font-family="Times,serif" font-size="14.00">id :integer</text>
<text text-anchor="start" x="836.986" y="-540.3" font-family="Times,serif" font-size="14.00">name :string</text>
</g>
<!-- DimReligion -->
<g id="node8" class="node"><title>DimReligion</title>
<path fill="none" stroke="black" d="M276,-242.5C276,-242.5 365.569,-242.5 365.569,-242.5 371.569,-242.5 377.569,-248.5 377.569,-254.5 377.569,-254.5 377.569,-302.5 377.569,-302.5 377.569,-308.5 371.569,-314.5 365.569,-314.5 365.569,-314.5 276,-314.5 276,-314.5 270,-314.5 264,-308.5 264,-302.5 264,-302.5 264,-254.5 264,-254.5 264,-248.5 270,-242.5 276,-242.5"/>
<text text-anchor="middle" x="320.785" y="-299.3" font-family="Times,serif" font-size="14.00">DimReligion</text>
<polyline fill="none" stroke="black" points="264,-292.5 377.569,-292.5 "/>
<text text-anchor="start" x="272" y="-277.3" font-family="Times,serif" font-size="14.00">id :integer</text>
<text text-anchor="start" x="272" y="-263.3" font-family="Times,serif" font-size="14.00">name :string</text>
<text text-anchor="start" x="272" y="-249.3" font-family="Times,serif" font-size="14.00">locale_id :integer</text>
</g>
<!-- DimReligion&#45;&gt;UnifyMatchmakersMapping -->
<g id="edge4" class="edge"><title>DimReligion&#45;&gt;UnifyMatchmakersMapping</title>
<path fill="none" stroke="#07669a" d="M308.178,-234.331C297.917,-199.195 283.329,-149.244 271.994,-110.43"/>
<ellipse fill="none" stroke="#07669a" cx="309.351" cy="-238.348" rx="4.00001" ry="4.00001"/>
<polygon fill="#07669a" stroke="#07669a" points="271.99,-110.416 273.507,-99.5559 270.589,-105.617 269.187,-100.817 269.187,-100.817 269.187,-100.817 270.589,-105.617 264.868,-102.079 271.99,-110.416 271.99,-110.416"/>
</g>
<!-- DimZodiacSign -->
<g id="node9" class="node"><title>DimZodiacSign</title>
<path fill="none" stroke="black" d="M944.445,-505.5C944.445,-505.5 1051.12,-505.5 1051.12,-505.5 1057.12,-505.5 1063.12,-511.5 1063.12,-517.5 1063.12,-517.5 1063.12,-607.5 1063.12,-607.5 1063.12,-613.5 1057.12,-619.5 1051.12,-619.5 1051.12,-619.5 944.445,-619.5 944.445,-619.5 938.445,-619.5 932.445,-613.5 932.445,-607.5 932.445,-607.5 932.445,-517.5 932.445,-517.5 932.445,-511.5 938.445,-505.5 944.445,-505.5"/>
<text text-anchor="middle" x="997.785" y="-604.3" font-family="Times,serif" font-size="14.00">DimZodiacSign</text>
<polyline fill="none" stroke="black" points="932.445,-597.5 1063.12,-597.5 "/>
<text text-anchor="start" x="940.445" y="-582.3" font-family="Times,serif" font-size="14.00">id :integer</text>
<text text-anchor="start" x="940.445" y="-568.3" font-family="Times,serif" font-size="14.00">name :string</text>
<text text-anchor="start" x="940.445" y="-554.3" font-family="Times,serif" font-size="14.00">from_date :date</text>
<text text-anchor="start" x="940.445" y="-540.3" font-family="Times,serif" font-size="14.00">to_date :date</text>
<text text-anchor="start" x="940.445" y="-526.3" font-family="Times,serif" font-size="14.00">language_id :integer</text>
<text text-anchor="start" x="940.445" y="-512.3" font-family="Times,serif" font-size="14.00">locale_id :integer</text>
</g>
<!-- FactLinkedinProfile -->
<g id="node10" class="node"><title>FactLinkedinProfile</title>
<path fill="none" stroke="black" d="M1093,-456.5C1093,-456.5 1252.57,-456.5 1252.57,-456.5 1258.57,-456.5 1264.57,-462.5 1264.57,-468.5 1264.57,-468.5 1264.57,-656.5 1264.57,-656.5 1264.57,-662.5 1258.57,-668.5 1252.57,-668.5 1252.57,-668.5 1093,-668.5 1093,-668.5 1087,-668.5 1081,-662.5 1081,-656.5 1081,-656.5 1081,-468.5 1081,-468.5 1081,-462.5 1087,-456.5 1093,-456.5"/>
<text text-anchor="middle" x="1172.78" y="-653.3" font-family="Times,serif" font-size="14.00">FactLinkedinProfile</text>
<polyline fill="none" stroke="black" points="1081,-646.5 1264.57,-646.5 "/>
<text text-anchor="start" x="1089" y="-631.3" font-family="Times,serif" font-size="14.00">seq_num :integer</text>
<text text-anchor="start" x="1089" y="-617.3" font-family="Times,serif" font-size="14.00">unify_user_id :string</text>
<text text-anchor="start" x="1089" y="-603.3" font-family="Times,serif" font-size="14.00">linkedin_user_id :string</text>
<text text-anchor="start" x="1089" y="-589.3" font-family="Times,serif" font-size="14.00">first_name :string</text>
<text text-anchor="start" x="1089" y="-575.3" font-family="Times,serif" font-size="14.00">last_name :string</text>
<text text-anchor="start" x="1089" y="-561.3" font-family="Times,serif" font-size="14.00">headline :string</text>
<text text-anchor="start" x="1089" y="-547.3" font-family="Times,serif" font-size="14.00">location :string</text>
<text text-anchor="start" x="1089" y="-533.3" font-family="Times,serif" font-size="14.00">location_country_code :string</text>
<text text-anchor="start" x="1089" y="-519.3" font-family="Times,serif" font-size="14.00">industry :string</text>
<text text-anchor="start" x="1089" y="-505.3" font-family="Times,serif" font-size="14.00">distance :integer</text>
<text text-anchor="start" x="1089" y="-491.3" font-family="Times,serif" font-size="14.00">picture_url :string</text>
<text text-anchor="start" x="1089" y="-477.3" font-family="Times,serif" font-size="14.00">public_profile_url :string</text>
<text text-anchor="start" x="1089" y="-463.3" font-family="Times,serif" font-size="14.00">last_updated :datetime</text>
</g>
<!-- FactLinkedinProfilePosition -->
<g id="node11" class="node"><title>FactLinkedinProfilePosition</title>
<path fill="none" stroke="black" d="M1294.71,-477.5C1294.71,-477.5 1448.86,-477.5 1448.86,-477.5 1454.86,-477.5 1460.86,-483.5 1460.86,-489.5 1460.86,-489.5 1460.86,-635.5 1460.86,-635.5 1460.86,-641.5 1454.86,-647.5 1448.86,-647.5 1448.86,-647.5 1294.71,-647.5 1294.71,-647.5 1288.71,-647.5 1282.71,-641.5 1282.71,-635.5 1282.71,-635.5 1282.71,-489.5 1282.71,-489.5 1282.71,-483.5 1288.71,-477.5 1294.71,-477.5"/>
<text text-anchor="middle" x="1371.78" y="-632.3" font-family="Times,serif" font-size="14.00">FactLinkedinProfilePosition</text>
<polyline fill="none" stroke="black" points="1282.71,-625.5 1460.86,-625.5 "/>
<text text-anchor="start" x="1290.71" y="-610.3" font-family="Times,serif" font-size="14.00">seq_num :integer</text>
<text text-anchor="start" x="1290.71" y="-596.3" font-family="Times,serif" font-size="14.00">linkedin_user_id :string</text>
<text text-anchor="start" x="1290.71" y="-582.3" font-family="Times,serif" font-size="14.00">linkedin_position_id :integer</text>
<text text-anchor="start" x="1290.71" y="-568.3" font-family="Times,serif" font-size="14.00">title :string</text>
<text text-anchor="start" x="1290.71" y="-554.3" font-family="Times,serif" font-size="14.00">company_id :integer</text>
<text text-anchor="start" x="1290.71" y="-540.3" font-family="Times,serif" font-size="14.00">company_name :string</text>
<text text-anchor="start" x="1290.71" y="-526.3" font-family="Times,serif" font-size="14.00">start_date :datetime</text>
<text text-anchor="start" x="1290.71" y="-512.3" font-family="Times,serif" font-size="14.00">end_date :datetime</text>
<text text-anchor="start" x="1290.71" y="-498.3" font-family="Times,serif" font-size="14.00">is_current :string</text>
<text text-anchor="start" x="1290.71" y="-484.3" font-family="Times,serif" font-size="14.00">last_updated :datetime</text>
</g>
<!-- UnifyMatchmaker&#45;&gt;UnifyMatchmakersMapping -->
<g id="edge5" class="edge"><title>UnifyMatchmaker&#45;&gt;UnifyMatchmakersMapping</title>
<path fill="none" stroke="#692096" d="M390.137,-140.615C389.029,-139.392 387.912,-138.187 386.785,-137 376.22,-125.874 363.934,-115.513 351.191,-106.117"/>
<ellipse fill="none" stroke="#692096" cx="392.964" cy="-143.85" rx="4.00002" ry="4.00002"/>
<polygon fill="#692096" stroke="#692096" points="350.895,-105.905 345.384,-96.4245 346.83,-102.994 342.764,-100.083 342.764,-100.083 342.764,-100.083 346.83,-102.994 340.145,-103.742 350.895,-105.905 350.895,-105.905"/>
</g>
<!-- UnifyUser -->
<g id="node14" class="node"><title>UnifyUser</title>
<path fill="none" stroke="black" d="M1490.62,-470.5C1490.62,-470.5 1628.95,-470.5 1628.95,-470.5 1634.95,-470.5 1640.95,-476.5 1640.95,-482.5 1640.95,-482.5 1640.95,-642.5 1640.95,-642.5 1640.95,-648.5 1634.95,-654.5 1628.95,-654.5 1628.95,-654.5 1490.62,-654.5 1490.62,-654.5 1484.62,-654.5 1478.62,-648.5 1478.62,-642.5 1478.62,-642.5 1478.62,-482.5 1478.62,-482.5 1478.62,-476.5 1484.62,-470.5 1490.62,-470.5"/>
<text text-anchor="middle" x="1559.78" y="-639.3" font-family="Times,serif" font-size="14.00">UnifyUser</text>
<polyline fill="none" stroke="black" points="1478.62,-632.5 1640.95,-632.5 "/>
<text text-anchor="start" x="1486.62" y="-617.3" font-family="Times,serif" font-size="14.00">user_id :string</text>
<text text-anchor="start" x="1486.62" y="-603.3" font-family="Times,serif" font-size="14.00">email :string</text>
<text text-anchor="start" x="1486.62" y="-589.3" font-family="Times,serif" font-size="14.00">password :string</text>
<text text-anchor="start" x="1486.62" y="-575.3" font-family="Times,serif" font-size="14.00">password_digest :string</text>
<text text-anchor="start" x="1486.62" y="-561.3" font-family="Times,serif" font-size="14.00">first_name :string</text>
<text text-anchor="start" x="1486.62" y="-547.3" font-family="Times,serif" font-size="14.00">last_name :string</text>
<text text-anchor="start" x="1486.62" y="-533.3" font-family="Times,serif" font-size="14.00">user_type :string</text>
<text text-anchor="start" x="1486.62" y="-519.3" font-family="Times,serif" font-size="14.00">locale_id :integer</text>
<text text-anchor="start" x="1486.62" y="-505.3" font-family="Times,serif" font-size="14.00">organization_name :string</text>
<text text-anchor="start" x="1486.62" y="-491.3" font-family="Times,serif" font-size="14.00">logo_image_name :string</text>
<text text-anchor="start" x="1486.62" y="-477.3" font-family="Times,serif" font-size="14.00">last_updated :datetime</text>
</g>
<!-- UnifyVwReligionLangCasteMapping -->
<g id="node15" class="node"><title>UnifyVwReligionLangCasteMapping</title>
<path fill="none" stroke="black" d="M1671.02,-491.5C1671.02,-491.5 1874.55,-491.5 1874.55,-491.5 1880.55,-491.5 1886.55,-497.5 1886.55,-503.5 1886.55,-503.5 1886.55,-621.5 1886.55,-621.5 1886.55,-627.5 1880.55,-633.5 1874.55,-633.5 1874.55,-633.5 1671.02,-633.5 1671.02,-633.5 1665.02,-633.5 1659.02,-627.5 1659.02,-621.5 1659.02,-621.5 1659.02,-503.5 1659.02,-503.5 1659.02,-497.5 1665.02,-491.5 1671.02,-491.5"/>
<text text-anchor="middle" x="1772.78" y="-618.3" font-family="Times,serif" font-size="14.00">UnifyVwReligionLangCasteMapping</text>
<polyline fill="none" stroke="black" points="1659.02,-611.5 1886.55,-611.5 "/>
<text text-anchor="start" x="1667.02" y="-596.3" font-family="Times,serif" font-size="14.00">religion_id :integer</text>
<text text-anchor="start" x="1667.02" y="-582.3" font-family="Times,serif" font-size="14.00">religion_name :string</text>
<text text-anchor="start" x="1667.02" y="-568.3" font-family="Times,serif" font-size="14.00">language_id :integer</text>
<text text-anchor="start" x="1667.02" y="-554.3" font-family="Times,serif" font-size="14.00">language_name :string</text>
<text text-anchor="start" x="1667.02" y="-540.3" font-family="Times,serif" font-size="14.00">caste_id :integer</text>
<text text-anchor="start" x="1667.02" y="-526.3" font-family="Times,serif" font-size="14.00">caste_name :string</text>
<text text-anchor="start" x="1667.02" y="-512.3" font-family="Times,serif" font-size="14.00">locale_id :integer</text>
<text text-anchor="start" x="1667.02" y="-498.3" font-family="Times,serif" font-size="14.00">locale_name :string</text>
</g>
</g>
</svg>
