<?xml version="1.0" encoding="UTF-8" standalone="no"?>
<!DOCTYPE svg PUBLIC "-//W3C//DTD SVG 1.1//EN"
 "http://www.w3.org/Graphics/SVG/1.1/DTD/svg11.dtd">
<!-- Generated by graphviz version 2.38.0 (20140413.2041)
 -->
<!-- Title: models_diagram Pages: 1 -->
<svg width="1937pt" height="225pt"
 viewBox="0.00 0.00 1937.20 225.00" xmlns="http://www.w3.org/2000/svg" xmlns:xlink="http://www.w3.org/1999/xlink">
<g id="graph0" class="graph" transform="scale(1 1) rotate(0) translate(4 221)">
<title>models_diagram</title>
<polygon fill="none" stroke="none" points="-4,4 -4,-221 1933.2,-221 1933.2,4 -4,4"/>
<!-- _diagram_info -->
<g id="node1" class="node"><title>_diagram_info</title>
<text text-anchor="start" x="123.265" y="-202.6" font-family="Times,serif" font-size="13.00">Models diagram</text>
<text text-anchor="start" x="123.265" y="-189.6" font-family="Times,serif" font-size="13.00">Date: Nov 12 2015 &#45; 16:11</text>
<text text-anchor="start" x="123.265" y="-176.6" font-family="Times,serif" font-size="13.00">Migration version: 20151112193332</text>
<text text-anchor="start" x="123.265" y="-163.6" font-family="Times,serif" font-size="13.00">Generated by RailRoady 1.3.1</text>
<text text-anchor="start" x="123.265" y="-150.6" font-family="Times,serif" font-size="13.00">http://railroady.prestonlee.com</text>
</g>
<!-- DimCaste -->
<g id="node2" class="node"><title>DimCaste</title>
<ellipse fill="none" stroke="black" cx="45.4764" cy="-90" rx="45.4527" ry="18"/>
<text text-anchor="middle" x="45.4764" y="-85.8" font-family="Times,serif" font-size="14.00">DimCaste</text>
</g>
<!-- UnifyMatchmakersMapping -->
<g id="node14" class="node"><title>UnifyMatchmakersMapping</title>
<ellipse fill="none" stroke="black" cx="236.476" cy="-18" rx="110.601" ry="18"/>
<text text-anchor="middle" x="236.476" y="-13.8" font-family="Times,serif" font-size="14.00">UnifyMatchmakersMapping</text>
</g>
<!-- DimCaste&#45;&gt;UnifyMatchmakersMapping -->
<g id="edge1" class="edge"><title>DimCaste&#45;&gt;UnifyMatchmakersMapping</title>
<path fill="none" stroke="#9b1878" d="M85.6576,-74.2739C114.275,-63.7858 153.007,-49.5907 184.055,-38.2121"/>
<ellipse fill="none" stroke="#9b1878" cx="81.6326" cy="-75.749" rx="4.00001" ry="4.00001"/>
<polygon fill="#9b1878" stroke="#9b1878" points="184.453,-38.0661 195.391,-38.8501 189.148,-36.3455 193.843,-34.625 193.843,-34.625 193.843,-34.625 189.148,-36.3455 192.294,-30.3998 184.453,-38.0661 184.453,-38.0661"/>
</g>
<!-- DimCity -->
<g id="node3" class="node"><title>DimCity</title>
<ellipse fill="none" stroke="black" cx="621.476" cy="-180.5" rx="41.1266" ry="18"/>
<text text-anchor="middle" x="621.476" y="-176.3" font-family="Times,serif" font-size="14.00">DimCity</text>
</g>
<!-- DimCommunity -->
<g id="node4" class="node"><title>DimCommunity</title>
<ellipse fill="none" stroke="black" cx="748.476" cy="-180.5" rx="68.172" ry="18"/>
<text text-anchor="middle" x="748.476" y="-176.3" font-family="Times,serif" font-size="14.00">DimCommunity</text>
</g>
<!-- DimCountry -->
<g id="node5" class="node"><title>DimCountry</title>
<ellipse fill="none" stroke="black" cx="394.476" cy="-180.5" rx="54.6334" ry="18"/>
<text text-anchor="middle" x="394.476" y="-176.3" font-family="Times,serif" font-size="14.00">DimCountry</text>
</g>
<!-- UnifyMatchmaker -->
<g id="node13" class="node"><title>UnifyMatchmaker</title>
<ellipse fill="none" stroke="black" cx="454.476" cy="-90" rx="75.3535" ry="18"/>
<text text-anchor="middle" x="454.476" y="-85.8" font-family="Times,serif" font-size="14.00">UnifyMatchmaker</text>
</g>
<!-- DimCountry&#45;&gt;UnifyMatchmaker -->
<g id="edge2" class="edge"><title>DimCountry&#45;&gt;UnifyMatchmaker</title>
<path fill="none" stroke="#bc9d3b" d="M410.262,-156.216C418.544,-144 428.707,-129.01 437.199,-116.484"/>
<ellipse fill="none" stroke="#bc9d3b" cx="408.007" cy="-159.543" rx="4.00002" ry="4.00002"/>
<polygon fill="#bc9d3b" stroke="#bc9d3b" points="437.426,-116.15 446.762,-110.398 440.232,-112.011 443.037,-107.872 443.037,-107.872 443.037,-107.872 440.232,-112.011 439.313,-105.347 437.426,-116.15 437.426,-116.15"/>
</g>
<!-- DimLanguage -->
<g id="node6" class="node"><title>DimLanguage</title>
<ellipse fill="none" stroke="black" cx="169.476" cy="-90" rx="60.8873" ry="18"/>
<text text-anchor="middle" x="169.476" y="-85.8" font-family="Times,serif" font-size="14.00">DimLanguage</text>
</g>
<!-- DimLanguage&#45;&gt;UnifyMatchmakersMapping -->
<g id="edge3" class="edge"><title>DimLanguage&#45;&gt;UnifyMatchmakersMapping</title>
<path fill="none" stroke="#f162a7" d="M191.037,-66.4744C198.149,-59.0436 206.087,-50.7497 213.314,-43.1993"/>
<ellipse fill="none" stroke="#f162a7" cx="188.12" cy="-69.5213" rx="4.00002" ry="4.00002"/>
<polygon fill="#f162a7" stroke="#f162a7" points="213.332,-43.1804 223.498,-39.0678 216.79,-39.5683 220.247,-35.9562 220.247,-35.9562 220.247,-35.9562 216.79,-39.5683 216.996,-32.8446 213.332,-43.1804 213.332,-43.1804"/>
</g>
<!-- DimLocale -->
<g id="node7" class="node"><title>DimLocale</title>
<ellipse fill="none" stroke="black" cx="884.476" cy="-180.5" rx="49.7706" ry="18"/>
<text text-anchor="middle" x="884.476" y="-176.3" font-family="Times,serif" font-size="14.00">DimLocale</text>
</g>
<!-- DimRegion -->
<g id="node8" class="node"><title>DimRegion</title>
<ellipse fill="none" stroke="black" cx="1003.48" cy="-180.5" rx="51.2501" ry="18"/>
<text text-anchor="middle" x="1003.48" y="-176.3" font-family="Times,serif" font-size="14.00">DimRegion</text>
</g>
<!-- DimReligion -->
<g id="node9" class="node"><title>DimReligion</title>
<ellipse fill="none" stroke="black" cx="304.476" cy="-90" rx="56.0786" ry="18"/>
<text text-anchor="middle" x="304.476" y="-85.8" font-family="Times,serif" font-size="14.00">DimReligion</text>
</g>
<!-- DimReligion&#45;&gt;UnifyMatchmakersMapping -->
<g id="edge4" class="edge"><title>DimReligion&#45;&gt;UnifyMatchmakersMapping</title>
<path fill="none" stroke="#2314e8" d="M282.594,-66.4744C275.376,-59.0436 267.319,-50.7497 259.984,-43.1993"/>
<ellipse fill="none" stroke="#2314e8" cx="285.574" cy="-69.5418" rx="4.00002" ry="4.00002"/>
<polygon fill="#2314e8" stroke="#2314e8" points="259.916,-43.129 256.176,-32.8207 256.432,-39.5426 252.948,-35.9562 252.948,-35.9562 252.948,-35.9562 256.432,-39.5426 249.72,-39.0918 259.916,-43.129 259.916,-43.129"/>
</g>
<!-- DimZodiacSign -->
<g id="node10" class="node"><title>DimZodiacSign</title>
<ellipse fill="none" stroke="black" cx="1139.48" cy="-180.5" rx="66.7012" ry="18"/>
<text text-anchor="middle" x="1139.48" y="-176.3" font-family="Times,serif" font-size="14.00">DimZodiacSign</text>
</g>
<!-- FactLinkedinProfile -->
<g id="node11" class="node"><title>FactLinkedinProfile</title>
<ellipse fill="none" stroke="black" cx="1304.48" cy="-180.5" rx="80.6921" ry="18"/>
<text text-anchor="middle" x="1304.48" y="-176.3" font-family="Times,serif" font-size="14.00">FactLinkedinProfile</text>
</g>
<!-- FactLinkedinProfilePosition -->
<g id="node12" class="node"><title>FactLinkedinProfilePosition</title>
<ellipse fill="none" stroke="black" cx="1513.48" cy="-180.5" rx="109.684" ry="18"/>
<text text-anchor="middle" x="1513.48" y="-176.3" font-family="Times,serif" font-size="14.00">FactLinkedinProfilePosition</text>
</g>
<!-- UnifyMatchmaker&#45;&gt;UnifyMatchmakersMapping -->
<g id="edge5" class="edge"><title>UnifyMatchmaker&#45;&gt;UnifyMatchmakersMapping</title>
<path fill="none" stroke="#07f24d" d="M403.46,-72.6186C370.723,-62.1066 328.142,-48.4338 294.173,-37.5263"/>
<ellipse fill="none" stroke="#07f24d" cx="407.598" cy="-73.9473" rx="4.00001" ry="4.00001"/>
<polygon fill="#07f24d" stroke="#07f24d" points="293.904,-37.4401 285.759,-30.0982 289.143,-35.9114 284.383,-34.3828 284.383,-34.3828 284.383,-34.3828 289.143,-35.9114 283.007,-38.6673 293.904,-37.4401 293.904,-37.4401"/>
</g>
<!-- UnifyUser -->
<g id="node15" class="node"><title>UnifyUser</title>
<ellipse fill="none" stroke="black" cx="514.476" cy="-180.5" rx="47.3736" ry="18"/>
<text text-anchor="middle" x="514.476" y="-176.3" font-family="Times,serif" font-size="14.00">UnifyUser</text>
</g>
<!-- UnifyUser&#45;&gt;UnifyMatchmaker -->
<g id="edge6" class="edge"><title>UnifyUser&#45;&gt;UnifyMatchmaker</title>
<path fill="none" stroke="#b81325" d="M498.691,-156.216C490.006,-143.407 479.255,-127.548 470.529,-114.677"/>
<ellipse fill="none" stroke="#b81325" cx="500.946" cy="-159.543" rx="4.00002" ry="4.00002"/>
<ellipse fill="#b81325" stroke="#b81325" cx="468.16" cy="-111.183" rx="4.00002" ry="4.00002"/>
</g>
<!-- UnifyVwReligionLangCasteMapping -->
<g id="node16" class="node"><title>UnifyVwReligionLangCasteMapping</title>
<ellipse fill="none" stroke="black" cx="1785.48" cy="-180.5" rx="143.944" ry="18"/>
<text text-anchor="middle" x="1785.48" y="-176.3" font-family="Times,serif" font-size="14.00">UnifyVwReligionLangCasteMapping</text>
</g>
</g>
</svg>
