<?xml version="1.0" encoding="UTF-8" standalone="no"?>
<!DOCTYPE svg PUBLIC "-//W3C//DTD SVG 1.1//EN"
 "http://www.w3.org/Graphics/SVG/1.1/DTD/svg11.dtd">
<!-- Generated by graphviz version 2.38.0 (20140413.2041)
 -->
<!-- Title: models_diagram Pages: 1 -->
<svg width="1804pt" height="663pt"
 viewBox="0.00 0.00 1803.55 663.00" xmlns="http://www.w3.org/2000/svg" xmlns:xlink="http://www.w3.org/1999/xlink">
<g id="graph0" class="graph" transform="scale(1 1) rotate(0) translate(4 659)">
<title>models_diagram</title>
<polygon fill="none" stroke="none" points="-4,4 -4,-659 1799.55,-659 1799.55,4 -4,4"/>
<!-- _diagram_info -->
<g id="node1" class="node"><title>_diagram_info</title>
<text text-anchor="start" x="73.573" y="-570.6" font-family="Times,serif" font-size="13.00">Models diagram</text>
<text text-anchor="start" x="73.573" y="-557.6" font-family="Times,serif" font-size="13.00">Date: Nov 12 2015 &#45; 16:11</text>
<text text-anchor="start" x="73.573" y="-544.6" font-family="Times,serif" font-size="13.00">Migration version: 20151112193332</text>
<text text-anchor="start" x="73.573" y="-531.6" font-family="Times,serif" font-size="13.00">Generated by RailRoady 1.3.1</text>
<text text-anchor="start" x="73.573" y="-518.6" font-family="Times,serif" font-size="13.00">http://railroady.prestonlee.com</text>
</g>
<!-- DimCaste -->
<g id="node2" class="node"><title>DimCaste</title>
<path fill="none" stroke="black" d="M12,-235.5C12,-235.5 101.569,-235.5 101.569,-235.5 107.569,-235.5 113.569,-241.5 113.569,-247.5 113.569,-247.5 113.569,-295.5 113.569,-295.5 113.569,-301.5 107.569,-307.5 101.569,-307.5 101.569,-307.5 12,-307.5 12,-307.5 6,-307.5 0,-301.5 0,-295.5 0,-295.5 0,-247.5 0,-247.5 0,-241.5 6,-235.5 12,-235.5"/>
<text text-anchor="middle" x="56.7847" y="-292.3" font-family="Times,serif" font-size="14.00">DimCaste</text>
<polyline fill="none" stroke="black" points="0,-285.5 113.569,-285.5 "/>
<text text-anchor="start" x="8" y="-270.3" font-family="Times,serif" font-size="14.00">id :integer</text>
<text text-anchor="start" x="8" y="-256.3" font-family="Times,serif" font-size="14.00">name :string</text>
<text text-anchor="start" x="8" y="-242.3" font-family="Times,serif" font-size="14.00">locale_id :integer</text>
</g>
<!-- UnifyMatchmakersMapping -->
<g id="node13" class="node"><title>UnifyMatchmakersMapping</title>
<path fill="none" stroke="black" d="M179.081,-0.5C179.081,-0.5 330.488,-0.5 330.488,-0.5 336.488,-0.5 342.488,-6.5 342.488,-12.5 342.488,-12.5 342.488,-88.5 342.488,-88.5 342.488,-94.5 336.488,-100.5 330.488,-100.5 330.488,-100.5 179.081,-100.5 179.081,-100.5 173.081,-100.5 167.081,-94.5 167.081,-88.5 167.081,-88.5 167.081,-12.5 167.081,-12.5 167.081,-6.5 173.081,-0.5 179.081,-0.5"/>
<text text-anchor="middle" x="254.785" y="-85.3" font-family="Times,serif" font-size="14.00">UnifyMatchmakersMapping</text>
<polyline fill="none" stroke="black" points="167.081,-78.5 342.488,-78.5 "/>
<text text-anchor="start" x="175.081" y="-63.3" font-family="Times,serif" font-size="14.00">id :integer</text>
<text text-anchor="start" x="175.081" y="-49.3" font-family="Times,serif" font-size="14.00">matchmakers_id :integer</text>
<text text-anchor="start" x="175.081" y="-35.3" font-family="Times,serif" font-size="14.00">religion_id :integer</text>
<text text-anchor="start" x="175.081" y="-21.3" font-family="Times,serif" font-size="14.00">caste_id :integer</text>
<text text-anchor="start" x="175.081" y="-7.3" font-family="Times,serif" font-size="14.00">language_id :integer</text>
</g>
<!-- DimCaste&#45;&gt;UnifyMatchmakersMapping -->
<g id="edge1" class="edge"><title>DimCaste&#45;&gt;UnifyMatchmakersMapping</title>
<path fill="none" stroke="#48d661" d="M71.1226,-227.712C82.0694,-199.641 99.2871,-163.385 122.785,-137 133.236,-125.264 145.66,-114.484 158.641,-104.823"/>
<ellipse fill="none" stroke="#48d661" cx="69.6226" cy="-231.658" rx="4.00001" ry="4.00001"/>
<polygon fill="#48d661" stroke="#48d661" points="158.671,-104.801 169.415,-102.603 162.727,-101.877 166.783,-98.9531 166.783,-98.9531 166.783,-98.9531 162.727,-101.877 164.152,-95.3027 158.671,-104.801 158.671,-104.801"/>
</g>
<!-- DimCity -->
<g id="node3" class="node"><title>DimCity</title>
<path fill="none" stroke="black" d="M672,-512.5C672,-512.5 761.569,-512.5 761.569,-512.5 767.569,-512.5 773.569,-518.5 773.569,-524.5 773.569,-524.5 773.569,-572.5 773.569,-572.5 773.569,-578.5 767.569,-584.5 761.569,-584.5 761.569,-584.5 672,-584.5 672,-584.5 666,-584.5 660,-578.5 660,-572.5 660,-572.5 660,-524.5 660,-524.5 660,-518.5 666,-512.5 672,-512.5"/>
<text text-anchor="middle" x="716.785" y="-569.3" font-family="Times,serif" font-size="14.00">DimCity</text>
<polyline fill="none" stroke="black" points="660,-562.5 773.569,-562.5 "/>
<text text-anchor="start" x="668" y="-547.3" font-family="Times,serif" font-size="14.00">id :integer</text>
<text text-anchor="start" x="668" y="-533.3" font-family="Times,serif" font-size="14.00">name :string</text>
<text text-anchor="start" x="668" y="-519.3" font-family="Times,serif" font-size="14.00">locale_id :integer</text>
</g>
<!-- DimCommunity -->
<g id="node4" class="node"><title>DimCommunity</title>
<path fill="none" stroke="black" d="M803.892,-526.5C803.892,-526.5 887.678,-526.5 887.678,-526.5 893.678,-526.5 899.678,-532.5 899.678,-538.5 899.678,-538.5 899.678,-558.5 899.678,-558.5 899.678,-564.5 893.678,-570.5 887.678,-570.5 887.678,-570.5 803.892,-570.5 803.892,-570.5 797.892,-570.5 791.892,-564.5 791.892,-558.5 791.892,-558.5 791.892,-538.5 791.892,-538.5 791.892,-532.5 797.892,-526.5 803.892,-526.5"/>
<text text-anchor="middle" x="845.785" y="-555.3" font-family="Times,serif" font-size="14.00">DimCommunity</text>
<polyline fill="none" stroke="black" points="791.892,-548.5 899.678,-548.5 "/>
<text text-anchor="start" x="799.892" y="-533.3" font-family="Times,serif" font-size="14.00">id :integer</text>
</g>
<!-- DimCountry -->
<g id="node5" class="node"><title>DimCountry</title>
<path fill="none" stroke="black" d="M302.221,-491.5C302.221,-491.5 449.349,-491.5 449.349,-491.5 455.349,-491.5 461.349,-497.5 461.349,-503.5 461.349,-503.5 461.349,-593.5 461.349,-593.5 461.349,-599.5 455.349,-605.5 449.349,-605.5 449.349,-605.5 302.221,-605.5 302.221,-605.5 296.221,-605.5 290.221,-599.5 290.221,-593.5 290.221,-593.5 290.221,-503.5 290.221,-503.5 290.221,-497.5 296.221,-491.5 302.221,-491.5"/>
<text text-anchor="middle" x="375.785" y="-590.3" font-family="Times,serif" font-size="14.00">DimCountry</text>
<polyline fill="none" stroke="black" points="290.221,-583.5 461.349,-583.5 "/>
<text text-anchor="start" x="298.221" y="-568.3" font-family="Times,serif" font-size="14.00">id :integer</text>
<text text-anchor="start" x="298.221" y="-554.3" font-family="Times,serif" font-size="14.00">name :string</text>
<text text-anchor="start" x="298.221" y="-540.3" font-family="Times,serif" font-size="14.00">locale_id :integer</text>
<text text-anchor="start" x="298.221" y="-526.3" font-family="Times,serif" font-size="14.00">country_new_code :integer</text>
<text text-anchor="start" x="298.221" y="-512.3" font-family="Times,serif" font-size="14.00">country_old_code :integer</text>
<text text-anchor="start" x="298.221" y="-498.3" font-family="Times,serif" font-size="14.00">country_abbrevation :string</text>
</g>
<!-- UnifyMatchmaker -->
<g id="node12" class="node"><title>UnifyMatchmaker</title>
<path fill="none" stroke="black" d="M407.828,-137.5C407.828,-137.5 527.742,-137.5 527.742,-137.5 533.742,-137.5 539.742,-143.5 539.742,-149.5 539.742,-149.5 539.742,-393.5 539.742,-393.5 539.742,-399.5 533.742,-405.5 527.742,-405.5 527.742,-405.5 407.828,-405.5 407.828,-405.5 401.828,-405.5 395.828,-399.5 395.828,-393.5 395.828,-393.5 395.828,-149.5 395.828,-149.5 395.828,-143.5 401.828,-137.5 407.828,-137.5"/>
<text text-anchor="middle" x="467.785" y="-390.3" font-family="Times,serif" font-size="14.00">UnifyMatchmaker</text>
<polyline fill="none" stroke="black" points="395.828,-383.5 539.742,-383.5 "/>
<text text-anchor="start" x="403.828" y="-368.3" font-family="Times,serif" font-size="14.00">id :integer</text>
<text text-anchor="start" x="403.828" y="-354.3" font-family="Times,serif" font-size="14.00">user_name :string</text>
<text text-anchor="start" x="403.828" y="-340.3" font-family="Times,serif" font-size="14.00">password :string</text>
<text text-anchor="start" x="403.828" y="-326.3" font-family="Times,serif" font-size="14.00">company_name :string</text>
<text text-anchor="start" x="403.828" y="-312.3" font-family="Times,serif" font-size="14.00">first_name :string</text>
<text text-anchor="start" x="403.828" y="-298.3" font-family="Times,serif" font-size="14.00">last_name :string</text>
<text text-anchor="start" x="403.828" y="-284.3" font-family="Times,serif" font-size="14.00">email_address :string</text>
<text text-anchor="start" x="403.828" y="-270.3" font-family="Times,serif" font-size="14.00">phone :string</text>
<text text-anchor="start" x="403.828" y="-256.3" font-family="Times,serif" font-size="14.00">address_1 :string</text>
<text text-anchor="start" x="403.828" y="-242.3" font-family="Times,serif" font-size="14.00">address_2 :string</text>
<text text-anchor="start" x="403.828" y="-228.3" font-family="Times,serif" font-size="14.00">state :string</text>
<text text-anchor="start" x="403.828" y="-214.3" font-family="Times,serif" font-size="14.00">city :string</text>
<text text-anchor="start" x="403.828" y="-200.3" font-family="Times,serif" font-size="14.00">country_id :integer</text>
<text text-anchor="start" x="403.828" y="-186.3" font-family="Times,serif" font-size="14.00">locale_id :integer</text>
<text text-anchor="start" x="403.828" y="-172.3" font-family="Times,serif" font-size="14.00">last_updated :datetime</text>
<text text-anchor="start" x="403.828" y="-158.3" font-family="Times,serif" font-size="14.00">biz_location :string</text>
<text text-anchor="start" x="403.828" y="-144.3" font-family="Times,serif" font-size="14.00">unify_user_id :string</text>
</g>
<!-- DimCountry&#45;&gt;UnifyMatchmaker -->
<g id="edge2" class="edge"><title>DimCountry&#45;&gt;UnifyMatchmaker</title>
<path fill="none" stroke="#9e72da" d="M397.218,-483.432C404.11,-462.833 412.042,-439.122 420.045,-415.201"/>
<ellipse fill="none" stroke="#9e72da" cx="395.893" cy="-487.393" rx="4.00001" ry="4.00001"/>
<polygon fill="#9e72da" stroke="#9e72da" points="420.06,-415.154 427.5,-407.099 421.647,-410.413 423.233,-405.671 423.233,-405.671 423.233,-405.671 421.647,-410.413 418.965,-404.243 420.06,-415.154 420.06,-415.154"/>
</g>
<!-- DimLanguage -->
<g id="node6" class="node"><title>DimLanguage</title>
<path fill="none" stroke="black" d="M144,-235.5C144,-235.5 233.569,-235.5 233.569,-235.5 239.569,-235.5 245.569,-241.5 245.569,-247.5 245.569,-247.5 245.569,-295.5 245.569,-295.5 245.569,-301.5 239.569,-307.5 233.569,-307.5 233.569,-307.5 144,-307.5 144,-307.5 138,-307.5 132,-301.5 132,-295.5 132,-295.5 132,-247.5 132,-247.5 132,-241.5 138,-235.5 144,-235.5"/>
<text text-anchor="middle" x="188.785" y="-292.3" font-family="Times,serif" font-size="14.00">DimLanguage</text>
<polyline fill="none" stroke="black" points="132,-285.5 245.569,-285.5 "/>
<text text-anchor="start" x="140" y="-270.3" font-family="Times,serif" font-size="14.00">id :integer</text>
<text text-anchor="start" x="140" y="-256.3" font-family="Times,serif" font-size="14.00">name :string</text>
<text text-anchor="start" x="140" y="-242.3" font-family="Times,serif" font-size="14.00">locale_id :integer</text>
</g>
<!-- DimLanguage&#45;&gt;UnifyMatchmakersMapping -->
<g id="edge3" class="edge"><title>DimLanguage&#45;&gt;UnifyMatchmakersMapping</title>
<path fill="none" stroke="#e605e8" d="M201.791,-227.342C211.855,-193.95 225.899,-147.347 237.002,-110.506"/>
<ellipse fill="none" stroke="#e605e8" cx="200.543" cy="-231.484" rx="4.00001" ry="4.00001"/>
<polygon fill="#e605e8" stroke="#e605e8" points="237.017,-110.455 244.212,-102.179 238.46,-105.668 239.903,-100.88 239.903,-100.88 239.903,-100.88 238.46,-105.668 235.594,-99.5819 237.017,-110.455 237.017,-110.455"/>
</g>
<!-- DimLocale -->
<g id="node7" class="node"><title>DimLocale</title>
<path fill="none" stroke="black" d="M929.986,-519.5C929.986,-519.5 991.583,-519.5 991.583,-519.5 997.583,-519.5 1003.58,-525.5 1003.58,-531.5 1003.58,-531.5 1003.58,-565.5 1003.58,-565.5 1003.58,-571.5 997.583,-577.5 991.583,-577.5 991.583,-577.5 929.986,-577.5 929.986,-577.5 923.986,-577.5 917.986,-571.5 917.986,-565.5 917.986,-565.5 917.986,-531.5 917.986,-531.5 917.986,-525.5 923.986,-519.5 929.986,-519.5"/>
<text text-anchor="middle" x="960.785" y="-562.3" font-family="Times,serif" font-size="14.00">DimLocale</text>
<polyline fill="none" stroke="black" points="917.986,-555.5 1003.58,-555.5 "/>
<text text-anchor="start" x="925.986" y="-540.3" font-family="Times,serif" font-size="14.00">id :integer</text>
<text text-anchor="start" x="925.986" y="-526.3" font-family="Times,serif" font-size="14.00">name :string</text>
</g>
<!-- DimReligion -->
<g id="node8" class="node"><title>DimReligion</title>
<path fill="none" stroke="black" d="M276,-235.5C276,-235.5 365.569,-235.5 365.569,-235.5 371.569,-235.5 377.569,-241.5 377.569,-247.5 377.569,-247.5 377.569,-295.5 377.569,-295.5 377.569,-301.5 371.569,-307.5 365.569,-307.5 365.569,-307.5 276,-307.5 276,-307.5 270,-307.5 264,-301.5 264,-295.5 264,-295.5 264,-247.5 264,-247.5 264,-241.5 270,-235.5 276,-235.5"/>
<text text-anchor="middle" x="320.785" y="-292.3" font-family="Times,serif" font-size="14.00">DimReligion</text>
<polyline fill="none" stroke="black" points="264,-285.5 377.569,-285.5 "/>
<text text-anchor="start" x="272" y="-270.3" font-family="Times,serif" font-size="14.00">id :integer</text>
<text text-anchor="start" x="272" y="-256.3" font-family="Times,serif" font-size="14.00">name :string</text>
<text text-anchor="start" x="272" y="-242.3" font-family="Times,serif" font-size="14.00">locale_id :integer</text>
</g>
<!-- DimReligion&#45;&gt;UnifyMatchmakersMapping -->
<g id="edge4" class="edge"><title>DimReligion&#45;&gt;UnifyMatchmakersMapping</title>
<path fill="none" stroke="#2b3454" d="M307.778,-227.342C297.715,-193.95 283.67,-147.347 272.567,-110.506"/>
<ellipse fill="none" stroke="#2b3454" cx="309.026" cy="-231.484" rx="4.00001" ry="4.00001"/>
<polygon fill="#2b3454" stroke="#2b3454" points="272.552,-110.455 273.975,-99.5819 271.109,-105.668 269.666,-100.88 269.666,-100.88 269.666,-100.88 271.109,-105.668 265.358,-102.179 272.552,-110.455 272.552,-110.455"/>
</g>
<!-- DimZodiacSign -->
<g id="node9" class="node"><title>DimZodiacSign</title>
<path fill="none" stroke="black" d="M1033.44,-491.5C1033.44,-491.5 1140.12,-491.5 1140.12,-491.5 1146.12,-491.5 1152.12,-497.5 1152.12,-503.5 1152.12,-503.5 1152.12,-593.5 1152.12,-593.5 1152.12,-599.5 1146.12,-605.5 1140.12,-605.5 1140.12,-605.5 1033.44,-605.5 1033.44,-605.5 1027.44,-605.5 1021.44,-599.5 1021.44,-593.5 1021.44,-593.5 1021.44,-503.5 1021.44,-503.5 1021.44,-497.5 1027.44,-491.5 1033.44,-491.5"/>
<text text-anchor="middle" x="1086.78" y="-590.3" font-family="Times,serif" font-size="14.00">DimZodiacSign</text>
<polyline fill="none" stroke="black" points="1021.44,-583.5 1152.12,-583.5 "/>
<text text-anchor="start" x="1029.44" y="-568.3" font-family="Times,serif" font-size="14.00">id :integer</text>
<text text-anchor="start" x="1029.44" y="-554.3" font-family="Times,serif" font-size="14.00">name :string</text>
<text text-anchor="start" x="1029.44" y="-540.3" font-family="Times,serif" font-size="14.00">from_date :date</text>
<text text-anchor="start" x="1029.44" y="-526.3" font-family="Times,serif" font-size="14.00">to_date :date</text>
<text text-anchor="start" x="1029.44" y="-512.3" font-family="Times,serif" font-size="14.00">language_id :integer</text>
<text text-anchor="start" x="1029.44" y="-498.3" font-family="Times,serif" font-size="14.00">locale_id :integer</text>
</g>
<!-- FactLinkedinProfile -->
<g id="node10" class="node"><title>FactLinkedinProfile</title>
<path fill="none" stroke="black" d="M1182,-442.5C1182,-442.5 1341.57,-442.5 1341.57,-442.5 1347.57,-442.5 1353.57,-448.5 1353.57,-454.5 1353.57,-454.5 1353.57,-642.5 1353.57,-642.5 1353.57,-648.5 1347.57,-654.5 1341.57,-654.5 1341.57,-654.5 1182,-654.5 1182,-654.5 1176,-654.5 1170,-648.5 1170,-642.5 1170,-642.5 1170,-454.5 1170,-454.5 1170,-448.5 1176,-442.5 1182,-442.5"/>
<text text-anchor="middle" x="1261.78" y="-639.3" font-family="Times,serif" font-size="14.00">FactLinkedinProfile</text>
<polyline fill="none" stroke="black" points="1170,-632.5 1353.57,-632.5 "/>
<text text-anchor="start" x="1178" y="-617.3" font-family="Times,serif" font-size="14.00">seq_num :integer</text>
<text text-anchor="start" x="1178" y="-603.3" font-family="Times,serif" font-size="14.00">unify_user_id :string</text>
<text text-anchor="start" x="1178" y="-589.3" font-family="Times,serif" font-size="14.00">linkedin_user_id :string</text>
<text text-anchor="start" x="1178" y="-575.3" font-family="Times,serif" font-size="14.00">first_name :string</text>
<text text-anchor="start" x="1178" y="-561.3" font-family="Times,serif" font-size="14.00">last_name :string</text>
<text text-anchor="start" x="1178" y="-547.3" font-family="Times,serif" font-size="14.00">headline :string</text>
<text text-anchor="start" x="1178" y="-533.3" font-family="Times,serif" font-size="14.00">location :string</text>
<text text-anchor="start" x="1178" y="-519.3" font-family="Times,serif" font-size="14.00">location_country_code :string</text>
<text text-anchor="start" x="1178" y="-505.3" font-family="Times,serif" font-size="14.00">industry :string</text>
<text text-anchor="start" x="1178" y="-491.3" font-family="Times,serif" font-size="14.00">distance :integer</text>
<text text-anchor="start" x="1178" y="-477.3" font-family="Times,serif" font-size="14.00">picture_url :string</text>
<text text-anchor="start" x="1178" y="-463.3" font-family="Times,serif" font-size="14.00">public_profile_url :string</text>
<text text-anchor="start" x="1178" y="-449.3" font-family="Times,serif" font-size="14.00">last_updated :datetime</text>
</g>
<!-- FactLinkedinProfilePosition -->
<g id="node11" class="node"><title>FactLinkedinProfilePosition</title>
<path fill="none" stroke="black" d="M1383.71,-463.5C1383.71,-463.5 1537.86,-463.5 1537.86,-463.5 1543.86,-463.5 1549.86,-469.5 1549.86,-475.5 1549.86,-475.5 1549.86,-621.5 1549.86,-621.5 1549.86,-627.5 1543.86,-633.5 1537.86,-633.5 1537.86,-633.5 1383.71,-633.5 1383.71,-633.5 1377.71,-633.5 1371.71,-627.5 1371.71,-621.5 1371.71,-621.5 1371.71,-475.5 1371.71,-475.5 1371.71,-469.5 1377.71,-463.5 1383.71,-463.5"/>
<text text-anchor="middle" x="1460.78" y="-618.3" font-family="Times,serif" font-size="14.00">FactLinkedinProfilePosition</text>
<polyline fill="none" stroke="black" points="1371.71,-611.5 1549.86,-611.5 "/>
<text text-anchor="start" x="1379.71" y="-596.3" font-family="Times,serif" font-size="14.00">seq_num :integer</text>
<text text-anchor="start" x="1379.71" y="-582.3" font-family="Times,serif" font-size="14.00">linkedin_user_id :string</text>
<text text-anchor="start" x="1379.71" y="-568.3" font-family="Times,serif" font-size="14.00">linkedin_position_id :integer</text>
<text text-anchor="start" x="1379.71" y="-554.3" font-family="Times,serif" font-size="14.00">title :string</text>
<text text-anchor="start" x="1379.71" y="-540.3" font-family="Times,serif" font-size="14.00">company_id :integer</text>
<text text-anchor="start" x="1379.71" y="-526.3" font-family="Times,serif" font-size="14.00">company_name :string</text>
<text text-anchor="start" x="1379.71" y="-512.3" font-family="Times,serif" font-size="14.00">start_date :datetime</text>
<text text-anchor="start" x="1379.71" y="-498.3" font-family="Times,serif" font-size="14.00">end_date :datetime</text>
<text text-anchor="start" x="1379.71" y="-484.3" font-family="Times,serif" font-size="14.00">is_current :string</text>
<text text-anchor="start" x="1379.71" y="-470.3" font-family="Times,serif" font-size="14.00">last_updated :datetime</text>
</g>
<!-- UnifyMatchmaker&#45;&gt;UnifyMatchmakersMapping -->
<g id="edge5" class="edge"><title>UnifyMatchmaker&#45;&gt;UnifyMatchmakersMapping</title>
<path fill="none" stroke="#9fd616" d="M390.158,-140.555C389.042,-139.353 387.918,-138.167 386.785,-137 376.097,-125.993 363.741,-115.698 350.965,-106.334"/>
<ellipse fill="none" stroke="#9fd616" cx="392.994" cy="-143.724" rx="4.00002" ry="4.00002"/>
<polygon fill="#9fd616" stroke="#9fd616" points="350.665,-106.121 345.133,-96.6522 346.593,-103.219 342.521,-100.317 342.521,-100.317 342.521,-100.317 346.593,-103.219 339.91,-103.981 350.665,-106.121 350.665,-106.121"/>
</g>
<!-- UnifyUser -->
<g id="node14" class="node"><title>UnifyUser</title>
<path fill="none" stroke="black" d="M491.623,-456.5C491.623,-456.5 629.946,-456.5 629.946,-456.5 635.946,-456.5 641.946,-462.5 641.946,-468.5 641.946,-468.5 641.946,-628.5 641.946,-628.5 641.946,-634.5 635.946,-640.5 629.946,-640.5 629.946,-640.5 491.623,-640.5 491.623,-640.5 485.623,-640.5 479.623,-634.5 479.623,-628.5 479.623,-628.5 479.623,-468.5 479.623,-468.5 479.623,-462.5 485.623,-456.5 491.623,-456.5"/>
<text text-anchor="middle" x="560.785" y="-625.3" font-family="Times,serif" font-size="14.00">UnifyUser</text>
<polyline fill="none" stroke="black" points="479.623,-618.5 641.946,-618.5 "/>
<text text-anchor="start" x="487.623" y="-603.3" font-family="Times,serif" font-size="14.00">user_id :string</text>
<text text-anchor="start" x="487.623" y="-589.3" font-family="Times,serif" font-size="14.00">email :string</text>
<text text-anchor="start" x="487.623" y="-575.3" font-family="Times,serif" font-size="14.00">password :string</text>
<text text-anchor="start" x="487.623" y="-561.3" font-family="Times,serif" font-size="14.00">password_digest :string</text>
<text text-anchor="start" x="487.623" y="-547.3" font-family="Times,serif" font-size="14.00">first_name :string</text>
<text text-anchor="start" x="487.623" y="-533.3" font-family="Times,serif" font-size="14.00">last_name :string</text>
<text text-anchor="start" x="487.623" y="-519.3" font-family="Times,serif" font-size="14.00">user_type :string</text>
<text text-anchor="start" x="487.623" y="-505.3" font-family="Times,serif" font-size="14.00">locale_id :integer</text>
<text text-anchor="start" x="487.623" y="-491.3" font-family="Times,serif" font-size="14.00">organization_name :string</text>
<text text-anchor="start" x="487.623" y="-477.3" font-family="Times,serif" font-size="14.00">logo_image_name :string</text>
<text text-anchor="start" x="487.623" y="-463.3" font-family="Times,serif" font-size="14.00">last_updated :datetime</text>
</g>
<!-- UnifyUser&#45;&gt;UnifyMatchmaker -->
<g id="edge6" class="edge"><title>UnifyUser&#45;&gt;UnifyMatchmaker</title>
<path fill="none" stroke="#848416" d="M527.346,-448.621C523.474,-437.174 519.471,-425.337 515.457,-413.466"/>
<ellipse fill="none" stroke="#848416" cx="528.665" cy="-452.522" rx="4.00001" ry="4.00001"/>
<ellipse fill="#848416" stroke="#848416" cx="514.1" cy="-409.453" rx="4.00001" ry="4.00001"/>
</g>
<!-- UnifyVwReligionLangCasteMapping -->
<g id="node15" class="node"><title>UnifyVwReligionLangCasteMapping</title>
<path fill="none" stroke="black" d="M1580.02,-477.5C1580.02,-477.5 1783.55,-477.5 1783.55,-477.5 1789.55,-477.5 1795.55,-483.5 1795.55,-489.5 1795.55,-489.5 1795.55,-607.5 1795.55,-607.5 1795.55,-613.5 1789.55,-619.5 1783.55,-619.5 1783.55,-619.5 1580.02,-619.5 1580.02,-619.5 1574.02,-619.5 1568.02,-613.5 1568.02,-607.5 1568.02,-607.5 1568.02,-489.5 1568.02,-489.5 1568.02,-483.5 1574.02,-477.5 1580.02,-477.5"/>
<text text-anchor="middle" x="1681.78" y="-604.3" font-family="Times,serif" font-size="14.00">UnifyVwReligionLangCasteMapping</text>
<polyline fill="none" stroke="black" points="1568.02,-597.5 1795.55,-597.5 "/>
<text text-anchor="start" x="1576.02" y="-582.3" font-family="Times,serif" font-size="14.00">religion_id :integer</text>
<text text-anchor="start" x="1576.02" y="-568.3" font-family="Times,serif" font-size="14.00">religion_name :string</text>
<text text-anchor="start" x="1576.02" y="-554.3" font-family="Times,serif" font-size="14.00">language_id :integer</text>
<text text-anchor="start" x="1576.02" y="-540.3" font-family="Times,serif" font-size="14.00">language_name :string</text>
<text text-anchor="start" x="1576.02" y="-526.3" font-family="Times,serif" font-size="14.00">caste_id :integer</text>
<text text-anchor="start" x="1576.02" y="-512.3" font-family="Times,serif" font-size="14.00">caste_name :string</text>
<text text-anchor="start" x="1576.02" y="-498.3" font-family="Times,serif" font-size="14.00">locale_id :integer</text>
<text text-anchor="start" x="1576.02" y="-484.3" font-family="Times,serif" font-size="14.00">locale_name :string</text>
</g>
</g>
</svg>
