<?xml version="1.0" encoding="UTF-8" standalone="no"?>
<!DOCTYPE svg PUBLIC "-//W3C//DTD SVG 1.1//EN"
 "http://www.w3.org/Graphics/SVG/1.1/DTD/svg11.dtd">
<!-- Generated by graphviz version 2.38.0 (20140413.2041)
 -->
<!-- Title: models_diagram Pages: 1 -->
<svg width="1996pt" height="225pt"
 viewBox="0.00 0.00 1996.20 225.00" xmlns="http://www.w3.org/2000/svg" xmlns:xlink="http://www.w3.org/1999/xlink">
<g id="graph0" class="graph" transform="scale(1 1) rotate(0) translate(4 221)">
<title>models_diagram</title>
<polygon fill="none" stroke="none" points="-4,4 -4,-221 1992.2,-221 1992.2,4 -4,4"/>
<!-- _diagram_info -->
<g id="node1" class="node"><title>_diagram_info</title>
<text text-anchor="start" x="181.789" y="-202.6" font-family="Times,serif" font-size="13.00">Models diagram</text>
<text text-anchor="start" x="181.789" y="-189.6" font-family="Times,serif" font-size="13.00">Date: Sep 14 2015 &#45; 15:05</text>
<text text-anchor="start" x="181.789" y="-176.6" font-family="Times,serif" font-size="13.00">Migration version: 20150914073249</text>
<text text-anchor="start" x="181.789" y="-163.6" font-family="Times,serif" font-size="13.00">Generated by RailRoady 1.3.1</text>
<text text-anchor="start" x="181.789" y="-150.6" font-family="Times,serif" font-size="13.00">http://railroady.prestonlee.com</text>
</g>
<!-- DimCaste -->
<g id="node2" class="node"><title>DimCaste</title>
<ellipse fill="none" stroke="black" cx="45.4764" cy="-90" rx="45.4527" ry="18"/>
<text text-anchor="middle" x="45.4764" y="-85.8" font-family="Times,serif" font-size="14.00">DimCaste</text>
</g>
<!-- UnifyMatchmakersMapping -->
<g id="node14" class="node"><title>UnifyMatchmakersMapping</title>
<ellipse fill="none" stroke="black" cx="236.476" cy="-18" rx="110.601" ry="18"/>
<text text-anchor="middle" x="236.476" y="-13.8" font-family="Times,serif" font-size="14.00">UnifyMatchmakersMapping</text>
</g>
<!-- DimCaste&#45;&gt;UnifyMatchmakersMapping -->
<g id="edge1" class="edge"><title>DimCaste&#45;&gt;UnifyMatchmakersMapping</title>
<path fill="none" stroke="#06031c" d="M85.6576,-74.2739C114.275,-63.7858 153.007,-49.5907 184.055,-38.2121"/>
<ellipse fill="none" stroke="#06031c" cx="81.6326" cy="-75.749" rx="4.00001" ry="4.00001"/>
<polygon fill="#06031c" stroke="#06031c" points="184.453,-38.0661 195.391,-38.8501 189.148,-36.3455 193.843,-34.625 193.843,-34.625 193.843,-34.625 189.148,-36.3455 192.294,-30.3998 184.453,-38.0661 184.453,-38.0661"/>
</g>
<!-- DimCity -->
<g id="node3" class="node"><title>DimCity</title>
<ellipse fill="none" stroke="black" cx="568.476" cy="-180.5" rx="41.1266" ry="18"/>
<text text-anchor="middle" x="568.476" y="-176.3" font-family="Times,serif" font-size="14.00">DimCity</text>
</g>
<!-- DimCommunity -->
<g id="node4" class="node"><title>DimCommunity</title>
<ellipse fill="none" stroke="black" cx="695.476" cy="-180.5" rx="68.172" ry="18"/>
<text text-anchor="middle" x="695.476" y="-176.3" font-family="Times,serif" font-size="14.00">DimCommunity</text>
</g>
<!-- DimCountry -->
<g id="node5" class="node"><title>DimCountry</title>
<ellipse fill="none" stroke="black" cx="454.476" cy="-180.5" rx="54.6334" ry="18"/>
<text text-anchor="middle" x="454.476" y="-176.3" font-family="Times,serif" font-size="14.00">DimCountry</text>
</g>
<!-- UnifyMatchmaker -->
<g id="node13" class="node"><title>UnifyMatchmaker</title>
<ellipse fill="none" stroke="black" cx="454.476" cy="-90" rx="75.3535" ry="18"/>
<text text-anchor="middle" x="454.476" y="-85.8" font-family="Times,serif" font-size="14.00">UnifyMatchmaker</text>
</g>
<!-- DimCountry&#45;&gt;UnifyMatchmaker -->
<g id="edge2" class="edge"><title>DimCountry&#45;&gt;UnifyMatchmaker</title>
<path fill="none" stroke="#1b84fd" d="M454.476,-154.189C454.476,-142.971 454.476,-129.752 454.476,-118.311"/>
<ellipse fill="none" stroke="#1b84fd" cx="454.476" cy="-158.436" rx="4" ry="4"/>
<polygon fill="#1b84fd" stroke="#1b84fd" points="454.476,-118.011 458.976,-108.011 454.476,-113.011 454.476,-108.011 454.476,-108.011 454.476,-108.011 454.476,-113.011 449.976,-108.011 454.476,-118.011 454.476,-118.011"/>
</g>
<!-- DimLanguage -->
<g id="node6" class="node"><title>DimLanguage</title>
<ellipse fill="none" stroke="black" cx="169.476" cy="-90" rx="60.8873" ry="18"/>
<text text-anchor="middle" x="169.476" y="-85.8" font-family="Times,serif" font-size="14.00">DimLanguage</text>
</g>
<!-- DimLanguage&#45;&gt;UnifyMatchmakersMapping -->
<g id="edge3" class="edge"><title>DimLanguage&#45;&gt;UnifyMatchmakersMapping</title>
<path fill="none" stroke="#dc7800" d="M191.037,-66.4744C198.149,-59.0436 206.087,-50.7497 213.314,-43.1993"/>
<ellipse fill="none" stroke="#dc7800" cx="188.12" cy="-69.5213" rx="4.00002" ry="4.00002"/>
<polygon fill="#dc7800" stroke="#dc7800" points="213.332,-43.1804 223.498,-39.0678 216.79,-39.5683 220.247,-35.9562 220.247,-35.9562 220.247,-35.9562 216.79,-39.5683 216.996,-32.8446 213.332,-43.1804 213.332,-43.1804"/>
</g>
<!-- DimLocale -->
<g id="node7" class="node"><title>DimLocale</title>
<ellipse fill="none" stroke="black" cx="831.476" cy="-180.5" rx="49.7706" ry="18"/>
<text text-anchor="middle" x="831.476" y="-176.3" font-family="Times,serif" font-size="14.00">DimLocale</text>
</g>
<!-- DimRegion -->
<g id="node8" class="node"><title>DimRegion</title>
<ellipse fill="none" stroke="black" cx="950.476" cy="-180.5" rx="51.2501" ry="18"/>
<text text-anchor="middle" x="950.476" y="-176.3" font-family="Times,serif" font-size="14.00">DimRegion</text>
</g>
<!-- DimReligion -->
<g id="node9" class="node"><title>DimReligion</title>
<ellipse fill="none" stroke="black" cx="304.476" cy="-90" rx="56.0786" ry="18"/>
<text text-anchor="middle" x="304.476" y="-85.8" font-family="Times,serif" font-size="14.00">DimReligion</text>
</g>
<!-- DimReligion&#45;&gt;UnifyMatchmakersMapping -->
<g id="edge4" class="edge"><title>DimReligion&#45;&gt;UnifyMatchmakersMapping</title>
<path fill="none" stroke="#c688d6" d="M282.594,-66.4744C275.376,-59.0436 267.319,-50.7497 259.984,-43.1993"/>
<ellipse fill="none" stroke="#c688d6" cx="285.574" cy="-69.5418" rx="4.00002" ry="4.00002"/>
<polygon fill="#c688d6" stroke="#c688d6" points="259.916,-43.129 256.176,-32.8207 256.432,-39.5426 252.948,-35.9562 252.948,-35.9562 252.948,-35.9562 256.432,-39.5426 249.72,-39.0918 259.916,-43.129 259.916,-43.129"/>
</g>
<!-- DimZodiacSign -->
<g id="node10" class="node"><title>DimZodiacSign</title>
<ellipse fill="none" stroke="black" cx="1086.48" cy="-180.5" rx="66.7012" ry="18"/>
<text text-anchor="middle" x="1086.48" y="-176.3" font-family="Times,serif" font-size="14.00">DimZodiacSign</text>
</g>
<!-- FactLinkedinProfile -->
<g id="node11" class="node"><title>FactLinkedinProfile</title>
<ellipse fill="none" stroke="black" cx="1251.48" cy="-180.5" rx="80.6921" ry="18"/>
<text text-anchor="middle" x="1251.48" y="-176.3" font-family="Times,serif" font-size="14.00">FactLinkedinProfile</text>
</g>
<!-- FactLinkedinProfilePosition -->
<g id="node12" class="node"><title>FactLinkedinProfilePosition</title>
<ellipse fill="none" stroke="black" cx="1460.48" cy="-180.5" rx="109.684" ry="18"/>
<text text-anchor="middle" x="1460.48" y="-176.3" font-family="Times,serif" font-size="14.00">FactLinkedinProfilePosition</text>
</g>
<!-- UnifyMatchmaker&#45;&gt;UnifyMatchmakersMapping -->
<g id="edge5" class="edge"><title>UnifyMatchmaker&#45;&gt;UnifyMatchmakersMapping</title>
<path fill="none" stroke="#2ce59f" d="M403.46,-72.6186C370.723,-62.1066 328.142,-48.4338 294.173,-37.5263"/>
<ellipse fill="none" stroke="#2ce59f" cx="407.598" cy="-73.9473" rx="4.00001" ry="4.00001"/>
<polygon fill="#2ce59f" stroke="#2ce59f" points="293.904,-37.4401 285.759,-30.0982 289.143,-35.9114 284.383,-34.3828 284.383,-34.3828 284.383,-34.3828 289.143,-35.9114 283.007,-38.6673 293.904,-37.4401 293.904,-37.4401"/>
</g>
<!-- UnifyUser -->
<g id="node15" class="node"><title>UnifyUser</title>
<ellipse fill="none" stroke="black" cx="1635.48" cy="-180.5" rx="47.3736" ry="18"/>
<text text-anchor="middle" x="1635.48" y="-176.3" font-family="Times,serif" font-size="14.00">UnifyUser</text>
</g>
<!-- UnifyVwReligionLangCasteMapping -->
<g id="node16" class="node"><title>UnifyVwReligionLangCasteMapping</title>
<ellipse fill="none" stroke="black" cx="1844.48" cy="-180.5" rx="143.944" ry="18"/>
<text text-anchor="middle" x="1844.48" y="-176.3" font-family="Times,serif" font-size="14.00">UnifyVwReligionLangCasteMapping</text>
</g>
</g>
</svg>
