<?xml version="1.0" encoding="UTF-8" standalone="no"?>
<!DOCTYPE svg PUBLIC "-//W3C//DTD SVG 1.1//EN"
 "http://www.w3.org/Graphics/SVG/1.1/DTD/svg11.dtd">
<!-- Generated by graphviz version 2.38.0 (20140413.2041)
 -->
<!-- Title: models_diagram Pages: 1 -->
<svg width="1895pt" height="649pt"
 viewBox="0.00 0.00 1894.55 649.00" xmlns="http://www.w3.org/2000/svg" xmlns:xlink="http://www.w3.org/1999/xlink">
<g id="graph0" class="graph" transform="scale(1 1) rotate(0) translate(4 645)">
<title>models_diagram</title>
<polygon fill="none" stroke="none" points="-4,4 -4,-645 1890.55,-645 1890.55,4 -4,4"/>
<!-- _diagram_info -->
<g id="node1" class="node"><title>_diagram_info</title>
<text text-anchor="start" x="165.335" y="-556.6" font-family="Times,serif" font-size="13.00">Models diagram</text>
<text text-anchor="start" x="165.335" y="-543.6" font-family="Times,serif" font-size="13.00">Date: Sep 15 2015 &#45; 13:25</text>
<text text-anchor="start" x="165.335" y="-530.6" font-family="Times,serif" font-size="13.00">Migration version: 20150914212711</text>
<text text-anchor="start" x="165.335" y="-517.6" font-family="Times,serif" font-size="13.00">Generated by RailRoady 1.3.1</text>
<text text-anchor="start" x="165.335" y="-504.6" font-family="Times,serif" font-size="13.00">http://railroady.prestonlee.com</text>
</g>
<!-- DimCaste -->
<g id="node2" class="node"><title>DimCaste</title>
<path fill="none" stroke="black" d="M12,-228.5C12,-228.5 101.569,-228.5 101.569,-228.5 107.569,-228.5 113.569,-234.5 113.569,-240.5 113.569,-240.5 113.569,-288.5 113.569,-288.5 113.569,-294.5 107.569,-300.5 101.569,-300.5 101.569,-300.5 12,-300.5 12,-300.5 6,-300.5 0,-294.5 0,-288.5 0,-288.5 0,-240.5 0,-240.5 0,-234.5 6,-228.5 12,-228.5"/>
<text text-anchor="middle" x="56.7847" y="-285.3" font-family="Times,serif" font-size="14.00">DimCaste</text>
<polyline fill="none" stroke="black" points="0,-278.5 113.569,-278.5 "/>
<text text-anchor="start" x="8" y="-263.3" font-family="Times,serif" font-size="14.00">id :integer</text>
<text text-anchor="start" x="8" y="-249.3" font-family="Times,serif" font-size="14.00">name :string</text>
<text text-anchor="start" x="8" y="-235.3" font-family="Times,serif" font-size="14.00">locale_id :integer</text>
</g>
<!-- UnifyMatchmakersMapping -->
<g id="node13" class="node"><title>UnifyMatchmakersMapping</title>
<path fill="none" stroke="black" d="M179.081,-0.5C179.081,-0.5 330.488,-0.5 330.488,-0.5 336.488,-0.5 342.488,-6.5 342.488,-12.5 342.488,-12.5 342.488,-88.5 342.488,-88.5 342.488,-94.5 336.488,-100.5 330.488,-100.5 330.488,-100.5 179.081,-100.5 179.081,-100.5 173.081,-100.5 167.081,-94.5 167.081,-88.5 167.081,-88.5 167.081,-12.5 167.081,-12.5 167.081,-6.5 173.081,-0.5 179.081,-0.5"/>
<text text-anchor="middle" x="254.785" y="-85.3" font-family="Times,serif" font-size="14.00">UnifyMatchmakersMapping</text>
<polyline fill="none" stroke="black" points="167.081,-78.5 342.488,-78.5 "/>
<text text-anchor="start" x="175.081" y="-63.3" font-family="Times,serif" font-size="14.00">id :integer</text>
<text text-anchor="start" x="175.081" y="-49.3" font-family="Times,serif" font-size="14.00">matchmakers_id :integer</text>
<text text-anchor="start" x="175.081" y="-35.3" font-family="Times,serif" font-size="14.00">religion_id :integer</text>
<text text-anchor="start" x="175.081" y="-21.3" font-family="Times,serif" font-size="14.00">caste_id :integer</text>
<text text-anchor="start" x="175.081" y="-7.3" font-family="Times,serif" font-size="14.00">language_id :integer</text>
</g>
<!-- DimCaste&#45;&gt;UnifyMatchmakersMapping -->
<g id="edge1" class="edge"><title>DimCaste&#45;&gt;UnifyMatchmakersMapping</title>
<path fill="none" stroke="#1c645c" d="M72.5227,-220.758C83.6893,-194.497 100.627,-161.342 122.785,-137 133.363,-125.379 145.857,-114.661 158.87,-105.029"/>
<ellipse fill="none" stroke="#1c645c" cx="70.9184" cy="-224.623" rx="4.00001" ry="4.00001"/>
<polygon fill="#1c645c" stroke="#1c645c" points="158.904,-105.005 169.652,-102.829 162.966,-102.089 167.027,-99.1729 167.027,-99.1729 167.027,-99.1729 162.966,-102.089 164.403,-95.5173 158.904,-105.005 158.904,-105.005"/>
</g>
<!-- DimCity -->
<g id="node3" class="node"><title>DimCity</title>
<path fill="none" stroke="black" d="M583,-498.5C583,-498.5 672.569,-498.5 672.569,-498.5 678.569,-498.5 684.569,-504.5 684.569,-510.5 684.569,-510.5 684.569,-558.5 684.569,-558.5 684.569,-564.5 678.569,-570.5 672.569,-570.5 672.569,-570.5 583,-570.5 583,-570.5 577,-570.5 571,-564.5 571,-558.5 571,-558.5 571,-510.5 571,-510.5 571,-504.5 577,-498.5 583,-498.5"/>
<text text-anchor="middle" x="627.785" y="-555.3" font-family="Times,serif" font-size="14.00">DimCity</text>
<polyline fill="none" stroke="black" points="571,-548.5 684.569,-548.5 "/>
<text text-anchor="start" x="579" y="-533.3" font-family="Times,serif" font-size="14.00">id :integer</text>
<text text-anchor="start" x="579" y="-519.3" font-family="Times,serif" font-size="14.00">name :string</text>
<text text-anchor="start" x="579" y="-505.3" font-family="Times,serif" font-size="14.00">locale_id :integer</text>
</g>
<!-- DimCommunity -->
<g id="node4" class="node"><title>DimCommunity</title>
<path fill="none" stroke="black" d="M714.892,-512.5C714.892,-512.5 798.678,-512.5 798.678,-512.5 804.678,-512.5 810.678,-518.5 810.678,-524.5 810.678,-524.5 810.678,-544.5 810.678,-544.5 810.678,-550.5 804.678,-556.5 798.678,-556.5 798.678,-556.5 714.892,-556.5 714.892,-556.5 708.892,-556.5 702.892,-550.5 702.892,-544.5 702.892,-544.5 702.892,-524.5 702.892,-524.5 702.892,-518.5 708.892,-512.5 714.892,-512.5"/>
<text text-anchor="middle" x="756.785" y="-541.3" font-family="Times,serif" font-size="14.00">DimCommunity</text>
<polyline fill="none" stroke="black" points="702.892,-534.5 810.678,-534.5 "/>
<text text-anchor="start" x="710.892" y="-519.3" font-family="Times,serif" font-size="14.00">id :integer</text>
</g>
<!-- DimCountry -->
<g id="node5" class="node"><title>DimCountry</title>
<path fill="none" stroke="black" d="M394.221,-477.5C394.221,-477.5 541.349,-477.5 541.349,-477.5 547.349,-477.5 553.349,-483.5 553.349,-489.5 553.349,-489.5 553.349,-579.5 553.349,-579.5 553.349,-585.5 547.349,-591.5 541.349,-591.5 541.349,-591.5 394.221,-591.5 394.221,-591.5 388.221,-591.5 382.221,-585.5 382.221,-579.5 382.221,-579.5 382.221,-489.5 382.221,-489.5 382.221,-483.5 388.221,-477.5 394.221,-477.5"/>
<text text-anchor="middle" x="467.785" y="-576.3" font-family="Times,serif" font-size="14.00">DimCountry</text>
<polyline fill="none" stroke="black" points="382.221,-569.5 553.349,-569.5 "/>
<text text-anchor="start" x="390.221" y="-554.3" font-family="Times,serif" font-size="14.00">id :integer</text>
<text text-anchor="start" x="390.221" y="-540.3" font-family="Times,serif" font-size="14.00">name :string</text>
<text text-anchor="start" x="390.221" y="-526.3" font-family="Times,serif" font-size="14.00">locale_id :integer</text>
<text text-anchor="start" x="390.221" y="-512.3" font-family="Times,serif" font-size="14.00">country_new_code :integer</text>
<text text-anchor="start" x="390.221" y="-498.3" font-family="Times,serif" font-size="14.00">country_old_code :integer</text>
<text text-anchor="start" x="390.221" y="-484.3" font-family="Times,serif" font-size="14.00">country_abbrevation :string</text>
</g>
<!-- UnifyMatchmaker -->
<g id="node12" class="node"><title>UnifyMatchmaker</title>
<path fill="none" stroke="black" d="M407.828,-137.5C407.828,-137.5 527.742,-137.5 527.742,-137.5 533.742,-137.5 539.742,-143.5 539.742,-149.5 539.742,-149.5 539.742,-379.5 539.742,-379.5 539.742,-385.5 533.742,-391.5 527.742,-391.5 527.742,-391.5 407.828,-391.5 407.828,-391.5 401.828,-391.5 395.828,-385.5 395.828,-379.5 395.828,-379.5 395.828,-149.5 395.828,-149.5 395.828,-143.5 401.828,-137.5 407.828,-137.5"/>
<text text-anchor="middle" x="467.785" y="-376.3" font-family="Times,serif" font-size="14.00">UnifyMatchmaker</text>
<polyline fill="none" stroke="black" points="395.828,-369.5 539.742,-369.5 "/>
<text text-anchor="start" x="403.828" y="-354.3" font-family="Times,serif" font-size="14.00">id :integer</text>
<text text-anchor="start" x="403.828" y="-340.3" font-family="Times,serif" font-size="14.00">user_name :string</text>
<text text-anchor="start" x="403.828" y="-326.3" font-family="Times,serif" font-size="14.00">password :string</text>
<text text-anchor="start" x="403.828" y="-312.3" font-family="Times,serif" font-size="14.00">company_name :string</text>
<text text-anchor="start" x="403.828" y="-298.3" font-family="Times,serif" font-size="14.00">first_name :string</text>
<text text-anchor="start" x="403.828" y="-284.3" font-family="Times,serif" font-size="14.00">last_name :string</text>
<text text-anchor="start" x="403.828" y="-270.3" font-family="Times,serif" font-size="14.00">email_address :string</text>
<text text-anchor="start" x="403.828" y="-256.3" font-family="Times,serif" font-size="14.00">phone :string</text>
<text text-anchor="start" x="403.828" y="-242.3" font-family="Times,serif" font-size="14.00">address_1 :string</text>
<text text-anchor="start" x="403.828" y="-228.3" font-family="Times,serif" font-size="14.00">address_2 :string</text>
<text text-anchor="start" x="403.828" y="-214.3" font-family="Times,serif" font-size="14.00">state :string</text>
<text text-anchor="start" x="403.828" y="-200.3" font-family="Times,serif" font-size="14.00">city :string</text>
<text text-anchor="start" x="403.828" y="-186.3" font-family="Times,serif" font-size="14.00">country_id :integer</text>
<text text-anchor="start" x="403.828" y="-172.3" font-family="Times,serif" font-size="14.00">locale_id :integer</text>
<text text-anchor="start" x="403.828" y="-158.3" font-family="Times,serif" font-size="14.00">last_updated :datetime</text>
<text text-anchor="start" x="403.828" y="-144.3" font-family="Times,serif" font-size="14.00">biz_location :string</text>
</g>
<!-- DimCountry&#45;&gt;UnifyMatchmaker -->
<g id="edge2" class="edge"><title>DimCountry&#45;&gt;UnifyMatchmaker</title>
<path fill="none" stroke="#d23f6d" d="M467.785,-469.225C467.785,-448.781 467.785,-425.335 467.785,-401.795"/>
<ellipse fill="none" stroke="#d23f6d" cx="467.785" cy="-473.318" rx="4" ry="4"/>
<polygon fill="#d23f6d" stroke="#d23f6d" points="467.785,-401.709 472.285,-391.709 467.785,-396.709 467.785,-391.709 467.785,-391.709 467.785,-391.709 467.785,-396.709 463.285,-391.709 467.785,-401.709 467.785,-401.709"/>
</g>
<!-- DimLanguage -->
<g id="node6" class="node"><title>DimLanguage</title>
<path fill="none" stroke="black" d="M144,-228.5C144,-228.5 233.569,-228.5 233.569,-228.5 239.569,-228.5 245.569,-234.5 245.569,-240.5 245.569,-240.5 245.569,-288.5 245.569,-288.5 245.569,-294.5 239.569,-300.5 233.569,-300.5 233.569,-300.5 144,-300.5 144,-300.5 138,-300.5 132,-294.5 132,-288.5 132,-288.5 132,-240.5 132,-240.5 132,-234.5 138,-228.5 144,-228.5"/>
<text text-anchor="middle" x="188.785" y="-285.3" font-family="Times,serif" font-size="14.00">DimLanguage</text>
<polyline fill="none" stroke="black" points="132,-278.5 245.569,-278.5 "/>
<text text-anchor="start" x="140" y="-263.3" font-family="Times,serif" font-size="14.00">id :integer</text>
<text text-anchor="start" x="140" y="-249.3" font-family="Times,serif" font-size="14.00">name :string</text>
<text text-anchor="start" x="140" y="-235.3" font-family="Times,serif" font-size="14.00">locale_id :integer</text>
</g>
<!-- DimLanguage&#45;&gt;UnifyMatchmakersMapping -->
<g id="edge3" class="edge"><title>DimLanguage&#45;&gt;UnifyMatchmakersMapping</title>
<path fill="none" stroke="#d890c6" d="M202.189,-220.443C212.051,-188.766 225.573,-145.332 236.437,-110.436"/>
<ellipse fill="none" stroke="#d890c6" cx="200.872" cy="-224.673" rx="4.00001" ry="4.00001"/>
<polygon fill="#d890c6" stroke="#d890c6" points="236.453,-110.385 243.722,-102.174 237.939,-105.611 239.425,-100.837 239.425,-100.837 239.425,-100.837 237.939,-105.611 235.128,-99.4992 236.453,-110.385 236.453,-110.385"/>
</g>
<!-- DimLocale -->
<g id="node7" class="node"><title>DimLocale</title>
<path fill="none" stroke="black" d="M840.986,-505.5C840.986,-505.5 902.583,-505.5 902.583,-505.5 908.583,-505.5 914.583,-511.5 914.583,-517.5 914.583,-517.5 914.583,-551.5 914.583,-551.5 914.583,-557.5 908.583,-563.5 902.583,-563.5 902.583,-563.5 840.986,-563.5 840.986,-563.5 834.986,-563.5 828.986,-557.5 828.986,-551.5 828.986,-551.5 828.986,-517.5 828.986,-517.5 828.986,-511.5 834.986,-505.5 840.986,-505.5"/>
<text text-anchor="middle" x="871.785" y="-548.3" font-family="Times,serif" font-size="14.00">DimLocale</text>
<polyline fill="none" stroke="black" points="828.986,-541.5 914.583,-541.5 "/>
<text text-anchor="start" x="836.986" y="-526.3" font-family="Times,serif" font-size="14.00">id :integer</text>
<text text-anchor="start" x="836.986" y="-512.3" font-family="Times,serif" font-size="14.00">name :string</text>
</g>
<!-- DimReligion -->
<g id="node8" class="node"><title>DimReligion</title>
<path fill="none" stroke="black" d="M276,-228.5C276,-228.5 365.569,-228.5 365.569,-228.5 371.569,-228.5 377.569,-234.5 377.569,-240.5 377.569,-240.5 377.569,-288.5 377.569,-288.5 377.569,-294.5 371.569,-300.5 365.569,-300.5 365.569,-300.5 276,-300.5 276,-300.5 270,-300.5 264,-294.5 264,-288.5 264,-288.5 264,-240.5 264,-240.5 264,-234.5 270,-228.5 276,-228.5"/>
<text text-anchor="middle" x="320.785" y="-285.3" font-family="Times,serif" font-size="14.00">DimReligion</text>
<polyline fill="none" stroke="black" points="264,-278.5 377.569,-278.5 "/>
<text text-anchor="start" x="272" y="-263.3" font-family="Times,serif" font-size="14.00">id :integer</text>
<text text-anchor="start" x="272" y="-249.3" font-family="Times,serif" font-size="14.00">name :string</text>
<text text-anchor="start" x="272" y="-235.3" font-family="Times,serif" font-size="14.00">locale_id :integer</text>
</g>
<!-- DimReligion&#45;&gt;UnifyMatchmakersMapping -->
<g id="edge4" class="edge"><title>DimReligion&#45;&gt;UnifyMatchmakersMapping</title>
<path fill="none" stroke="#52631a" d="M307.38,-220.443C297.519,-188.766 283.996,-145.332 273.133,-110.436"/>
<ellipse fill="none" stroke="#52631a" cx="308.697" cy="-224.673" rx="4.00001" ry="4.00001"/>
<polygon fill="#52631a" stroke="#52631a" points="273.117,-110.385 274.441,-99.4992 271.631,-105.611 270.144,-100.837 270.144,-100.837 270.144,-100.837 271.631,-105.611 265.848,-102.174 273.117,-110.385 273.117,-110.385"/>
</g>
<!-- DimZodiacSign -->
<g id="node9" class="node"><title>DimZodiacSign</title>
<path fill="none" stroke="black" d="M944.445,-477.5C944.445,-477.5 1051.12,-477.5 1051.12,-477.5 1057.12,-477.5 1063.12,-483.5 1063.12,-489.5 1063.12,-489.5 1063.12,-579.5 1063.12,-579.5 1063.12,-585.5 1057.12,-591.5 1051.12,-591.5 1051.12,-591.5 944.445,-591.5 944.445,-591.5 938.445,-591.5 932.445,-585.5 932.445,-579.5 932.445,-579.5 932.445,-489.5 932.445,-489.5 932.445,-483.5 938.445,-477.5 944.445,-477.5"/>
<text text-anchor="middle" x="997.785" y="-576.3" font-family="Times,serif" font-size="14.00">DimZodiacSign</text>
<polyline fill="none" stroke="black" points="932.445,-569.5 1063.12,-569.5 "/>
<text text-anchor="start" x="940.445" y="-554.3" font-family="Times,serif" font-size="14.00">id :integer</text>
<text text-anchor="start" x="940.445" y="-540.3" font-family="Times,serif" font-size="14.00">name :string</text>
<text text-anchor="start" x="940.445" y="-526.3" font-family="Times,serif" font-size="14.00">from_date :date</text>
<text text-anchor="start" x="940.445" y="-512.3" font-family="Times,serif" font-size="14.00">to_date :date</text>
<text text-anchor="start" x="940.445" y="-498.3" font-family="Times,serif" font-size="14.00">language_id :integer</text>
<text text-anchor="start" x="940.445" y="-484.3" font-family="Times,serif" font-size="14.00">locale_id :integer</text>
</g>
<!-- FactLinkedinProfile -->
<g id="node10" class="node"><title>FactLinkedinProfile</title>
<path fill="none" stroke="black" d="M1093,-428.5C1093,-428.5 1252.57,-428.5 1252.57,-428.5 1258.57,-428.5 1264.57,-434.5 1264.57,-440.5 1264.57,-440.5 1264.57,-628.5 1264.57,-628.5 1264.57,-634.5 1258.57,-640.5 1252.57,-640.5 1252.57,-640.5 1093,-640.5 1093,-640.5 1087,-640.5 1081,-634.5 1081,-628.5 1081,-628.5 1081,-440.5 1081,-440.5 1081,-434.5 1087,-428.5 1093,-428.5"/>
<text text-anchor="middle" x="1172.78" y="-625.3" font-family="Times,serif" font-size="14.00">FactLinkedinProfile</text>
<polyline fill="none" stroke="black" points="1081,-618.5 1264.57,-618.5 "/>
<text text-anchor="start" x="1089" y="-603.3" font-family="Times,serif" font-size="14.00">seq_num :integer</text>
<text text-anchor="start" x="1089" y="-589.3" font-family="Times,serif" font-size="14.00">unify_user_id :string</text>
<text text-anchor="start" x="1089" y="-575.3" font-family="Times,serif" font-size="14.00">linkedin_user_id :string</text>
<text text-anchor="start" x="1089" y="-561.3" font-family="Times,serif" font-size="14.00">first_name :string</text>
<text text-anchor="start" x="1089" y="-547.3" font-family="Times,serif" font-size="14.00">last_name :string</text>
<text text-anchor="start" x="1089" y="-533.3" font-family="Times,serif" font-size="14.00">headline :string</text>
<text text-anchor="start" x="1089" y="-519.3" font-family="Times,serif" font-size="14.00">location :string</text>
<text text-anchor="start" x="1089" y="-505.3" font-family="Times,serif" font-size="14.00">location_country_code :string</text>
<text text-anchor="start" x="1089" y="-491.3" font-family="Times,serif" font-size="14.00">industry :string</text>
<text text-anchor="start" x="1089" y="-477.3" font-family="Times,serif" font-size="14.00">distance :integer</text>
<text text-anchor="start" x="1089" y="-463.3" font-family="Times,serif" font-size="14.00">picture_url :string</text>
<text text-anchor="start" x="1089" y="-449.3" font-family="Times,serif" font-size="14.00">public_profile_url :string</text>
<text text-anchor="start" x="1089" y="-435.3" font-family="Times,serif" font-size="14.00">last_updated :datetime</text>
</g>
<!-- FactLinkedinProfilePosition -->
<g id="node11" class="node"><title>FactLinkedinProfilePosition</title>
<path fill="none" stroke="black" d="M1294.71,-449.5C1294.71,-449.5 1448.86,-449.5 1448.86,-449.5 1454.86,-449.5 1460.86,-455.5 1460.86,-461.5 1460.86,-461.5 1460.86,-607.5 1460.86,-607.5 1460.86,-613.5 1454.86,-619.5 1448.86,-619.5 1448.86,-619.5 1294.71,-619.5 1294.71,-619.5 1288.71,-619.5 1282.71,-613.5 1282.71,-607.5 1282.71,-607.5 1282.71,-461.5 1282.71,-461.5 1282.71,-455.5 1288.71,-449.5 1294.71,-449.5"/>
<text text-anchor="middle" x="1371.78" y="-604.3" font-family="Times,serif" font-size="14.00">FactLinkedinProfilePosition</text>
<polyline fill="none" stroke="black" points="1282.71,-597.5 1460.86,-597.5 "/>
<text text-anchor="start" x="1290.71" y="-582.3" font-family="Times,serif" font-size="14.00">seq_num :integer</text>
<text text-anchor="start" x="1290.71" y="-568.3" font-family="Times,serif" font-size="14.00">linkedin_user_id :string</text>
<text text-anchor="start" x="1290.71" y="-554.3" font-family="Times,serif" font-size="14.00">linkedin_position_id :integer</text>
<text text-anchor="start" x="1290.71" y="-540.3" font-family="Times,serif" font-size="14.00">title :string</text>
<text text-anchor="start" x="1290.71" y="-526.3" font-family="Times,serif" font-size="14.00">company_id :integer</text>
<text text-anchor="start" x="1290.71" y="-512.3" font-family="Times,serif" font-size="14.00">company_name :string</text>
<text text-anchor="start" x="1290.71" y="-498.3" font-family="Times,serif" font-size="14.00">start_date :datetime</text>
<text text-anchor="start" x="1290.71" y="-484.3" font-family="Times,serif" font-size="14.00">end_date :datetime</text>
<text text-anchor="start" x="1290.71" y="-470.3" font-family="Times,serif" font-size="14.00">is_current :string</text>
<text text-anchor="start" x="1290.71" y="-456.3" font-family="Times,serif" font-size="14.00">last_updated :datetime</text>
</g>
<!-- UnifyMatchmaker&#45;&gt;UnifyMatchmakersMapping -->
<g id="edge5" class="edge"><title>UnifyMatchmaker&#45;&gt;UnifyMatchmakersMapping</title>
<path fill="none" stroke="#97e7c3" d="M390.175,-140.486C389.053,-139.307 387.923,-138.144 386.785,-137 375.964,-126.123 363.534,-115.901 350.723,-106.572"/>
<ellipse fill="none" stroke="#97e7c3" cx="393.012" cy="-143.574" rx="4.00002" ry="4.00002"/>
<polygon fill="#97e7c3" stroke="#97e7c3" points="350.419,-106.356 344.865,-96.9011 346.34,-103.464 342.262,-100.572 342.262,-100.572 342.262,-100.572 346.34,-103.464 339.659,-104.243 350.419,-106.356 350.419,-106.356"/>
</g>
<!-- UnifyUser -->
<g id="node14" class="node"><title>UnifyUser</title>
<path fill="none" stroke="black" d="M1490.62,-442.5C1490.62,-442.5 1628.95,-442.5 1628.95,-442.5 1634.95,-442.5 1640.95,-448.5 1640.95,-454.5 1640.95,-454.5 1640.95,-614.5 1640.95,-614.5 1640.95,-620.5 1634.95,-626.5 1628.95,-626.5 1628.95,-626.5 1490.62,-626.5 1490.62,-626.5 1484.62,-626.5 1478.62,-620.5 1478.62,-614.5 1478.62,-614.5 1478.62,-454.5 1478.62,-454.5 1478.62,-448.5 1484.62,-442.5 1490.62,-442.5"/>
<text text-anchor="middle" x="1559.78" y="-611.3" font-family="Times,serif" font-size="14.00">UnifyUser</text>
<polyline fill="none" stroke="black" points="1478.62,-604.5 1640.95,-604.5 "/>
<text text-anchor="start" x="1486.62" y="-589.3" font-family="Times,serif" font-size="14.00">user_id :string</text>
<text text-anchor="start" x="1486.62" y="-575.3" font-family="Times,serif" font-size="14.00">email :string</text>
<text text-anchor="start" x="1486.62" y="-561.3" font-family="Times,serif" font-size="14.00">password :string</text>
<text text-anchor="start" x="1486.62" y="-547.3" font-family="Times,serif" font-size="14.00">password_digest :string</text>
<text text-anchor="start" x="1486.62" y="-533.3" font-family="Times,serif" font-size="14.00">first_name :string</text>
<text text-anchor="start" x="1486.62" y="-519.3" font-family="Times,serif" font-size="14.00">last_name :string</text>
<text text-anchor="start" x="1486.62" y="-505.3" font-family="Times,serif" font-size="14.00">user_type :string</text>
<text text-anchor="start" x="1486.62" y="-491.3" font-family="Times,serif" font-size="14.00">locale_id :integer</text>
<text text-anchor="start" x="1486.62" y="-477.3" font-family="Times,serif" font-size="14.00">organization_name :string</text>
<text text-anchor="start" x="1486.62" y="-463.3" font-family="Times,serif" font-size="14.00">logo_image_name :string</text>
<text text-anchor="start" x="1486.62" y="-449.3" font-family="Times,serif" font-size="14.00">last_updated :datetime</text>
</g>
<!-- UnifyVwReligionLangCasteMapping -->
<g id="node15" class="node"><title>UnifyVwReligionLangCasteMapping</title>
<path fill="none" stroke="black" d="M1671.02,-463.5C1671.02,-463.5 1874.55,-463.5 1874.55,-463.5 1880.55,-463.5 1886.55,-469.5 1886.55,-475.5 1886.55,-475.5 1886.55,-593.5 1886.55,-593.5 1886.55,-599.5 1880.55,-605.5 1874.55,-605.5 1874.55,-605.5 1671.02,-605.5 1671.02,-605.5 1665.02,-605.5 1659.02,-599.5 1659.02,-593.5 1659.02,-593.5 1659.02,-475.5 1659.02,-475.5 1659.02,-469.5 1665.02,-463.5 1671.02,-463.5"/>
<text text-anchor="middle" x="1772.78" y="-590.3" font-family="Times,serif" font-size="14.00">UnifyVwReligionLangCasteMapping</text>
<polyline fill="none" stroke="black" points="1659.02,-583.5 1886.55,-583.5 "/>
<text text-anchor="start" x="1667.02" y="-568.3" font-family="Times,serif" font-size="14.00">religion_id :integer</text>
<text text-anchor="start" x="1667.02" y="-554.3" font-family="Times,serif" font-size="14.00">religion_name :string</text>
<text text-anchor="start" x="1667.02" y="-540.3" font-family="Times,serif" font-size="14.00">language_id :integer</text>
<text text-anchor="start" x="1667.02" y="-526.3" font-family="Times,serif" font-size="14.00">language_name :string</text>
<text text-anchor="start" x="1667.02" y="-512.3" font-family="Times,serif" font-size="14.00">caste_id :integer</text>
<text text-anchor="start" x="1667.02" y="-498.3" font-family="Times,serif" font-size="14.00">caste_name :string</text>
<text text-anchor="start" x="1667.02" y="-484.3" font-family="Times,serif" font-size="14.00">locale_id :integer</text>
<text text-anchor="start" x="1667.02" y="-470.3" font-family="Times,serif" font-size="14.00">locale_name :string</text>
</g>
</g>
</svg>
